<svg width="189" height="62" viewBox="0 0 189 62" fill="none" xmlns="http://www.w3.org/2000/svg">
<path d="M15.375 20.125L15.55 19.2L17.15 19.05C17.925 18.975 18.275 18.8 18.5 18.5C18.7 18.2 18.825 17.8 18.875 17.05L19.275 12.125L10.875 12.025L6.575 16.35C5.7 17.225 5.35 17.775 5.35 18.2C5.35 18.875 6.175 19 6.825 19.075L8.15 19.225L8 20.1L6.15 20C4.6 19.925 3.1 19.875 1.55 19.95L0.35 20L0.475 19.05L0.875 18.975C2.775 18.625 3.95 17.7 6.175 15.475L20.975 0.599999L22.15 0.674998L22.075 1.375C21.9 3.075 21.7 4.75 21.5 7.45L20.75 17.175C20.7 17.875 20.625 18.35 20.875 18.675C21.025 18.85 21.25 18.975 21.925 19.05L23.325 19.225L23.3 20.125L21.75 20.025C20.1 19.925 18.45 19.9 16.8 20.025L15.375 20.125ZM11.675 11.225L19.35 11.325L20.025 2.85L11.675 11.225ZM32.1492 10.3L32.0992 10.1C32.0242 9.725 31.9242 9.55 31.7242 9.55C31.3742 9.55 30.8992 10.25 30.6742 10.6C30.1992 11.3 29.5992 12.325 28.8992 13.7C27.8742 15.7 26.9742 17.675 25.9992 19.675C25.7992 20.1 25.6992 20.175 25.1992 20.175H24.9742C24.5742 20.175 24.4742 20.025 24.4742 19.825C24.4742 19.7 24.4992 19.575 24.7242 18.95L26.0492 15.25C26.7242 13.25 27.4492 11.275 27.9742 9.475C27.3492 9.575 26.6742 10.375 26.1492 11.15L25.5992 11.975L25.1492 11.725L25.9242 10.55C27.1742 8.675 28.1492 7.875 28.8242 7.875C29.1242 7.875 29.3242 8.2 29.3242 8.8C29.3242 9.425 29.1242 10.4 28.5742 11.9L26.6242 17.125L28.8242 12.8C30.2992 9.875 31.3242 7.9 32.5742 7.9C33.2492 7.9 33.7742 8.7 33.7742 9.475C33.7742 10.275 33.5242 10.85 32.8492 10.85C32.4492 10.85 32.2742 10.7 32.1492 10.3ZM33.6639 20.35C33.2889 20.35 33.1139 20.125 33.0889 19.675C33.1139 19.25 33.4389 18.525 33.6889 17.8L36.6139 9.35H34.7889L35.1139 8.4H36.9139L37.9139 5.25C38.1139 4.6 38.4389 4.475 38.9639 4.475C39.3889 4.475 39.5639 4.65 39.5639 4.925C39.5639 5.1 39.5139 5.275 39.2889 5.875L38.3389 8.4H40.5389L40.1889 9.35H38.0889L35.0889 18.175C35.6889 17.875 36.4639 17.15 37.0389 16.2L37.3389 15.7L37.9139 15.975L37.5639 16.525C36.5389 18.125 34.5389 20.35 33.6639 20.35ZM55.0271 20.125C50.0771 20.125 47.5521 17 47.5521 13.475C47.5521 10.4 50.8021 6.55 54.3271 6.55C55.7271 6.55 56.8521 7.225 57.1271 8.2L60.7771 4.575C61.1021 4.25 61.3521 4.05 61.3521 3.775C61.3521 3.55 61.1521 3.425 60.9271 3.275C60.5771 3.05 60.4521 2.775 60.4521 2.475C60.4521 1.8 61.3021 1.05 61.9771 1.05C62.5521 1.05 63.2271 1.6 63.2271 2.275C63.2271 3.125 62.4521 3.95 61.4521 4.95C59.7271 6.65 57.9521 8.3 56.2271 10C54.2021 12 52.2271 14.075 50.2271 16.1C51.2021 17.5 53.0521 18.275 55.8021 18.275C58.3771 18.275 61.5521 17.175 64.2771 14.575C65.5021 13.4 66.6771 11.925 67.8271 9.725L68.2271 8.95L67.6772 8.45L67.0021 7.825C66.0271 6.9 65.2271 6.5 64.0521 6.475C63.0021 6.475 62.2021 7.15 62.2021 8.275C62.2021 8.725 62.4021 9.075 62.7271 9.075C63.0271 9.075 63.1271 8.825 63.2021 8.525C63.2771 8.25 63.5021 7.925 63.8521 7.925C64.2521 7.925 64.5271 8.3 64.5271 8.725C64.5271 9.4 64.0021 10 63.2271 10C62.2521 10 61.6021 9.25 61.6021 8.325C61.6021 6.55 63.0771 5.5 64.9521 5.5C66.6021 5.5 67.8271 6.4 68.7771 7.2L69.1271 7.5C70.2771 8.5 70.8521 9.075 71.6771 9.075C72.5521 9.075 73.2021 8.45 73.2021 7.625C73.2021 7.05 72.8771 6.55 72.4271 6.55C72.2021 6.55 72.1271 6.625 72.0272 6.7C71.9022 6.775 71.7521 6.925 71.3521 6.925C70.8772 6.925 70.5521 6.6 70.5521 6.25C70.5521 5.825 71.0022 5.475 71.6771 5.475C72.9272 5.475 73.7771 6.45 73.7771 7.55C73.7771 9.125 72.5771 10.325 70.9771 10.325C70.2021 10.325 69.5272 10 68.7272 9.375L68.3021 10.175C67.2271 12.2 66.1021 13.775 64.8271 15.125C62.6521 17.4 58.6521 20.125 55.0271 20.125ZM55.6271 9.7C55.2521 9.45 54.9521 9.075 54.9521 8.475C54.9521 7.8 54.9021 7.3 54.1271 7.3C51.7771 7.3 49.4021 10.35 49.4021 13.175C49.4021 14.025 49.5521 14.775 49.8521 15.425L55.6271 9.7ZM79.4994 19.4L80.5244 15.625L81.2744 15.575V16.225C81.2744 18.425 82.4244 19.775 84.0744 19.775C86.2244 19.775 87.8494 18.075 87.8494 15.65C87.8494 14.175 87.3494 13 86.4744 11.375C85.0744 8.725 84.0744 7.175 84.0744 5.2C84.0744 2.575 86.3244 0.849999 89.0994 0.849999C89.8494 0.849999 90.6494 1.05 91.4244 1.35L92.7244 1.85L92.1494 5.6H91.4994L91.4744 5.2C91.3994 3.075 90.1994 1.625 88.6994 1.625C87.1244 1.625 85.9744 2.875 85.9744 4.625C85.9744 5.95 86.5494 7.025 87.9744 9.65C88.9244 11.325 89.8744 12.9 89.8744 14.875C89.8744 18.325 87.1494 20.6 83.7494 20.6C82.8994 20.6 82.0744 20.475 80.9994 20.125C80.4994 19.95 80.0244 19.7 79.4994 19.4ZM93.575 20.325C92.4 20.325 91.8 19.025 91.8 17.55C91.8 16.325 92.2 14.775 93 13.2C94.6 10.05 96.825 8.025 98.375 8.025C99.175 8.025 99.8 8.6 99.8 9.35C99.8 10.025 99.4 10.55 98.875 10.55C98.425 10.55 98.175 10.2 98.05 9.45C98 9.175 97.875 9.075 97.65 9.075C96.675 9.075 95.375 10.85 94.4 13.3C93.775 14.825 93.425 16.25 93.425 17.25C93.425 18.225 93.75 18.8 94.425 18.8C95.15 18.8 95.925 18.025 96.825 16.625L97.1 16.2L97.5 16.4L97.2 16.9C96.15 18.65 94.85 20.325 93.575 20.325ZM103.427 17.725C102.502 19.025 101.302 20.375 100.127 20.375C99.5016 20.375 99.1516 19.925 99.1516 19.35C99.1516 18.85 99.4516 17.9 100.027 16.675C101.127 14.35 102.752 11.25 103.777 9.45C102.627 9.6 101.377 10.875 100.952 11.325L100.502 11.825L100.127 11.55L100.752 10.825C101.827 9.6 103.552 8.175 104.477 8.175C104.877 8.175 105.102 8.525 105.102 9C105.102 9.45 104.927 10.1 104.552 10.925C103.702 12.725 101.852 16.325 100.527 19.125C101.252 19.125 102.327 18.325 102.977 17.45L103.402 16.875L103.877 17.125L103.427 17.725ZM105.377 4.2C104.752 4.2 104.252 3.7 104.252 3.075C104.252 2.45 104.752 1.95 105.377 1.95C106.002 1.95 106.502 2.45 106.502 3.075C106.502 3.7 106.002 4.2 105.377 4.2ZM107.023 20.375C105.898 20.375 105.423 19.1 105.423 17.775C105.423 16.5 105.798 14.875 106.573 13.15C107.573 10.9 109.423 8.1 111.173 8.1C112.098 8.1 112.648 8.975 112.648 9.925C112.648 12.3 110.248 14.225 107.698 14.275C107.273 15.525 107.048 16.65 107.048 17.475C107.048 18.375 107.348 18.95 107.923 18.95C108.548 18.95 109.273 18.2 110.148 16.8L110.598 16.075L110.998 16.225L110.473 17.2C109.323 19.325 108.048 20.375 107.023 20.375ZM107.898 13.7C110.198 13.25 111.848 11.025 111.848 9.65C111.848 9.125 111.598 8.8 111.198 8.8C110.223 8.8 108.973 11.125 108.348 12.55L107.898 13.7ZM113.403 20.2C113.128 20.2 112.703 20.025 112.703 19.75C112.703 19.6 112.803 19.45 112.928 19.125C114.328 15.75 115.603 12.75 116.753 9.375C116.053 9.6 115.353 10.175 114.553 11.325L113.928 12.225L113.453 11.975L114.053 11.075C115.078 9.525 116.553 8.075 117.553 8.075C117.978 8.075 118.178 8.35 118.178 8.725C118.178 9.675 117.103 11.875 115.528 15.725H115.553L117.228 13.075C118.603 10.875 119.428 9.925 120.203 9.2C120.928 8.55 121.728 8.075 122.228 8.075C122.853 8.075 123.128 8.7 123.128 9.375C123.128 10.375 122.503 11.8 121.953 12.925L119.128 18.725C120.103 18.625 121.178 17.55 121.903 16.525L122.253 16.025L122.728 16.3L122.353 16.85C121.153 18.575 119.303 20.225 118.103 20.225C117.678 20.225 117.428 19.925 117.428 19.575C117.428 18.95 118.178 17.475 119.253 15.25L120.203 13.3C120.953 11.75 121.578 10.425 121.578 9.75C121.578 9.45 121.403 9.25 121.178 9.25C120.478 9.25 119.478 10.525 118.178 12.3C116.753 14.225 115.128 17.275 114.303 19.275C114.078 19.8 113.978 20.2 113.403 20.2ZM125.753 20.325C124.578 20.325 123.978 19.025 123.978 17.55C123.978 16.325 124.378 14.775 125.178 13.2C126.778 10.05 129.003 8.025 130.553 8.025C131.353 8.025 131.978 8.6 131.978 9.35C131.978 10.025 131.578 10.55 131.053 10.55C130.603 10.55 130.353 10.2 130.228 9.45C130.178 9.175 130.053 9.075 129.828 9.075C128.853 9.075 127.553 10.85 126.578 13.3C125.953 14.825 125.603 16.25 125.603 17.25C125.603 18.225 125.928 18.8 126.603 18.8C127.328 18.8 128.103 18.025 129.003 16.625L129.278 16.2L129.678 16.4L129.378 16.9C128.328 18.65 127.028 20.325 125.753 20.325ZM132.804 20.375C131.679 20.375 131.204 19.1 131.204 17.775C131.204 16.5 131.579 14.875 132.354 13.15C133.354 10.9 135.204 8.1 136.954 8.1C137.879 8.1 138.429 8.975 138.429 9.925C138.429 12.3 136.029 14.225 133.479 14.275C133.054 15.525 132.829 16.65 132.829 17.475C132.829 18.375 133.129 18.95 133.704 18.95C134.329 18.95 135.054 18.2 135.929 16.8L136.379 16.075L136.779 16.225L136.254 17.2C135.104 19.325 133.829 20.375 132.804 20.375ZM133.679 13.7C135.979 13.25 137.629 11.025 137.629 9.65C137.629 9.125 137.379 8.8 136.979 8.8C136.004 8.8 134.754 11.125 134.129 12.55L133.679 13.7ZM151.809 20.025C150.284 19.925 148.784 19.875 147.259 19.875H145.159L145.309 19.125L146.384 19.05C147.459 18.975 147.884 18.7 148.159 18.375C148.459 18 148.559 17.5 148.734 16.6L151.284 3.85C151.409 3.3 151.459 3.075 151.459 2.85C151.434 2.125 150.859 2.075 150.109 2.025L148.484 1.925L148.634 1.15L149.709 1.175C152.009 1.225 155.059 1.275 158.834 1.3L163.859 1.275L163.734 1.875C163.534 2.85 163.384 3.65 163.209 4.7L163.109 5.325L162.334 5.275L162.409 4.725C162.509 3.9 162.384 3.3 162.009 2.9C161.559 2.375 160.659 2.175 158.609 2.175H156.809C155.759 2.175 154.684 2.225 153.634 2.25L152.184 9.1L157.484 9.15C158.384 9.15 158.809 9.1 159.109 8.925C159.459 8.725 159.634 8.4 159.884 7.475L160.109 6.65H160.809L160.559 7.775C160.259 9.075 160.009 10.425 159.834 11.85L159.734 12.675H158.984L159.134 11.9C159.284 11.15 159.234 10.725 159.009 10.425C158.809 10.1 158.434 9.925 157.559 9.925L152.034 9.85L150.734 16.575C150.584 17.3 150.534 17.65 150.534 17.925C150.534 18.2 150.584 18.375 150.684 18.525C150.859 18.8 151.159 18.95 152.009 19.075L153.909 19.35L153.734 20.15L151.809 20.025ZM161.487 16.775C161.487 15.6 161.737 14.25 162.287 12.9C163.462 10.025 165.537 8.05 167.237 8.05C168.987 8.05 169.637 9.95 169.637 11.675C169.637 12.85 169.387 14.2 168.837 15.55C167.662 18.45 165.612 20.4 163.912 20.4C162.162 20.4 161.487 18.5 161.487 16.775ZM163.837 19.75C164.937 19.75 166.487 17.725 167.512 14.95C168.062 13.425 168.362 11.95 168.362 10.825C168.362 9.575 167.987 8.75 167.287 8.75C166.187 8.75 164.612 10.775 163.612 13.525C163.062 15.05 162.787 16.5 162.787 17.625C162.787 18.9 163.137 19.75 163.837 19.75ZM178.438 10.3L178.388 10.1C178.313 9.725 178.213 9.55 178.013 9.55C177.663 9.55 177.188 10.25 176.963 10.6C176.488 11.3 175.888 12.325 175.188 13.7C174.163 15.7 173.263 17.675 172.288 19.675C172.088 20.1 171.988 20.175 171.488 20.175H171.263C170.863 20.175 170.763 20.025 170.763 19.825C170.763 19.7 170.788 19.575 171.013 18.95L172.338 15.25C173.013 13.25 173.738 11.275 174.263 9.475C173.638 9.575 172.963 10.375 172.438 11.15L171.888 11.975L171.438 11.725L172.213 10.55C173.463 8.675 174.438 7.875 175.113 7.875C175.413 7.875 175.613 8.2 175.613 8.8C175.613 9.425 175.413 10.4 174.863 11.9L172.913 17.125L175.113 12.8C176.588 9.875 177.613 7.9 178.863 7.9C179.538 7.9 180.063 8.7 180.063 9.475C180.063 10.275 179.813 10.85 179.138 10.85C178.738 10.85 178.563 10.7 178.438 10.3ZM12.5 54.1C10.675 53.975 9 54 7.175 54.125L6.075 54.2L6.15 53.35L7.2 53.225C8.2 53.1 8.625 52.875 8.925 52.55C9.3 52.1 9.425 51.45 9.65 50.375L10.6 45.6L7.85 38.625C7.425 37.575 7.25 37.15 6.975 36.825C6.725 36.525 6.425 36.35 5.65 36.175L5.1 36.05L5.225 35.2L6.125 35.275C7.425 35.375 8.725 35.35 10.025 35.25L11.4 35.15L11.25 36L10.775 36.1C9.725 36.325 9.45 36.7 9.45 37.15C9.45 37.425 9.55 37.725 9.85 38.475L12.3 44.75L19.5 37.875C20 37.4 20.1 37.2 20.1 37C20.1 36.625 19.65 36.3 18.625 36.1L17.975 35.975L18.125 35.225L19.225 35.3C20.625 35.4 21.8 35.375 22.95 35.325L24.1 35.275L24.075 35.975L23.625 36.1C22.525 36.4 21.675 36.925 20.25 38.25L12.575 45.45L11.4 51.35C11.25 52.1 11.2 52.325 11.2 52.475C11.2 53.075 11.625 53.125 12.925 53.275L13.85 53.375L13.7 54.175L12.5 54.1ZM17.6883 50.775C17.6883 49.6 17.9383 48.25 18.4883 46.9C19.6633 44.025 21.7383 42.05 23.4383 42.05C25.1883 42.05 25.8383 43.95 25.8383 45.675C25.8383 46.85 25.5883 48.2 25.0383 49.55C23.8633 52.45 21.8133 54.4 20.1133 54.4C18.3633 54.4 17.6883 52.5 17.6883 50.775ZM20.0383 53.75C21.1383 53.75 22.6883 51.725 23.7133 48.95C24.2633 47.425 24.5633 45.95 24.5633 44.825C24.5633 43.575 24.1883 42.75 23.4883 42.75C22.3883 42.75 20.8133 44.775 19.8133 47.525C19.2633 49.05 18.9883 50.5 18.9883 51.625C18.9883 52.9 19.3383 53.75 20.0383 53.75ZM27.4395 54.35C26.9645 54.35 26.7645 53.95 26.7645 53.425C26.7645 52.3 27.4895 50.8 28.1145 49.45L30.7395 43.825C29.9145 44.175 29.0895 44.9 28.3895 45.85L27.8645 46.55L27.4645 46.225L28.0145 45.475C29.2395 43.8 30.9645 42.175 32.1645 42.175C32.4395 42.175 32.5645 42.375 32.5645 42.725C32.5645 43.5 31.7645 44.85 30.8145 46.925L29.8145 49.075C29.1395 50.55 28.5395 51.75 28.5395 52.125C28.5395 52.325 28.6395 52.45 28.8395 52.45C29.7145 52.45 33.0145 48.575 34.4395 46.05C35.0645 44.95 35.6145 43.4 35.8395 42.9C36.0645 42.4 36.3145 42.125 36.7145 42.125C37.0395 42.125 37.2895 42.375 37.2895 42.775C37.2895 43.125 37.1645 43.5 36.9145 44.1L33.4395 52.725C34.0895 52.45 34.9645 51.625 35.5895 50.825L36.0145 50.275L36.4145 50.525L36.0145 51.1C34.8395 52.8 33.3395 54.325 32.5145 54.325C32.1145 54.325 31.9895 54.05 31.9895 53.625C31.9895 52.8 32.3895 51.95 32.7895 50.975L34.2395 47.425L34.2145 47.4L32.4145 49.65C29.4645 53.325 28.0145 54.35 27.4395 54.35ZM45.7723 44.3L45.7223 44.1C45.6473 43.725 45.5473 43.55 45.3473 43.55C44.9973 43.55 44.5223 44.25 44.2973 44.6C43.8223 45.3 43.2223 46.325 42.5223 47.7C41.4973 49.7 40.5973 51.675 39.6223 53.675C39.4223 54.1 39.3223 54.175 38.8223 54.175H38.5973C38.1973 54.175 38.0973 54.025 38.0973 53.825C38.0973 53.7 38.1223 53.575 38.3473 52.95L39.6723 49.25C40.3473 47.25 41.0723 45.275 41.5973 43.475C40.9723 43.575 40.2973 44.375 39.7723 45.15L39.2223 45.975L38.7723 45.725L39.5473 44.55C40.7973 42.675 41.7723 41.875 42.4473 41.875C42.7473 41.875 42.9473 42.2 42.9473 42.8C42.9473 43.425 42.7473 44.4 42.1973 45.9L40.2473 51.125L42.4473 46.8C43.9223 43.875 44.9473 41.9 46.1973 41.9C46.8723 41.9 47.3973 42.7 47.3973 43.475C47.3973 44.275 47.1473 44.85 46.4723 44.85C46.0723 44.85 45.8973 44.7 45.7723 44.3ZM66.9619 54.125L67.1369 53.2L68.7369 53.05C69.5119 52.975 69.8619 52.8 70.0869 52.5C70.2869 52.2 70.4119 51.8 70.4619 51.05L70.8619 46.125L62.4619 46.025L58.1619 50.35C57.2869 51.225 56.9369 51.775 56.9369 52.2C56.9369 52.875 57.7619 53 58.4119 53.075L59.7369 53.225L59.5869 54.1L57.7369 54C56.1869 53.925 54.6869 53.875 53.1369 53.95L51.9369 54L52.0619 53.05L52.4619 52.975C54.3619 52.625 55.5369 51.7 57.7619 49.475L72.5619 34.6L73.7369 34.675L73.6619 35.375C73.4869 37.075 73.2869 38.75 73.0869 41.45L72.3369 51.175C72.2869 51.875 72.2119 52.35 72.4619 52.675C72.6119 52.85 72.8369 52.975 73.5119 53.05L74.9119 53.225L74.8869 54.125L73.3369 54.025C71.6869 53.925 70.0369 53.9 68.3869 54.025L66.9619 54.125ZM63.2619 45.225L70.9369 45.325L71.6119 36.85L63.2619 45.225ZM76.7803 54.35C76.3053 54.35 76.1053 53.95 76.1053 53.425C76.1053 52.3 76.8303 50.8 77.4553 49.45L80.0803 43.825C79.2553 44.175 78.4303 44.9 77.7303 45.85L77.2053 46.55L76.8053 46.225L77.3553 45.475C78.5803 43.8 80.3053 42.175 81.5053 42.175C81.7803 42.175 81.9053 42.375 81.9053 42.725C81.9053 43.5 81.1053 44.85 80.1553 46.925L79.1553 49.075C78.4803 50.55 77.8803 51.75 77.8803 52.125C77.8803 52.325 77.9803 52.45 78.1803 52.45C79.0553 52.45 82.3553 48.575 83.7803 46.05C84.4053 44.95 84.9553 43.4 85.1803 42.9C85.4053 42.4 85.6553 42.125 86.0553 42.125C86.3803 42.125 86.6303 42.375 86.6303 42.775C86.6303 43.125 86.5053 43.5 86.2553 44.1L82.7803 52.725C83.4303 52.45 84.3053 51.625 84.9303 50.825L85.3553 50.275L85.7553 50.525L85.3553 51.1C84.1803 52.8 82.6803 54.325 81.8553 54.325C81.4553 54.325 81.3303 54.05 81.3303 53.625C81.3303 52.8 81.7303 51.95 82.1303 50.975L83.5803 47.425L83.5553 47.4L81.7553 49.65C78.8053 53.325 77.3553 54.35 76.7803 54.35ZM87.8631 54.35C87.4881 54.35 87.3131 54.125 87.2881 53.675C87.3131 53.25 87.6381 52.525 87.8881 51.8L90.8131 43.35H88.9881L89.3131 42.4H91.1131L92.1131 39.25C92.3131 38.6 92.6381 38.475 93.1631 38.475C93.5881 38.475 93.7631 38.65 93.7631 38.925C93.7631 39.1 93.7131 39.275 93.4881 39.875L92.5381 42.4H94.7381L94.3881 43.35H92.2881L89.2881 52.175C89.8881 51.875 90.6631 51.15 91.2381 50.2L91.5381 49.7L92.1131 49.975L91.7631 50.525C90.7381 52.125 88.7381 54.35 87.8631 54.35ZM94.2514 54.325C94.1514 54.325 94.1014 54.3 93.8764 54.2C93.5014 54 93.3764 53.875 93.3764 53.7C93.3764 53.6 93.4014 53.5 93.4764 53.275L99.7014 36.925C99.9764 36.2 100.076 35.8 100.076 35.475C100.076 34.975 99.6014 34.925 99.0264 34.9L98.6014 34.875L98.7514 34.175L99.5514 34.2C100.151 34.225 101.026 34.2 101.801 34.125L102.076 34.1L102.301 34.275L102.151 34.65C100.401 39.025 98.7514 43.4 97.0264 47.775L98.4764 45.6C99.8514 43.525 101.076 42.175 102.076 42.175C103.126 42.175 103.851 43.75 103.851 45.625C103.851 46.275 103.751 46.975 103.551 47.675C102.426 51.525 99.9764 54.325 97.9014 54.325C97.1764 54.325 96.5514 54 96.5514 53.275C96.5514 52.675 96.9764 52.325 97.4264 52.325C97.7764 52.325 98.0014 52.525 98.2014 52.775L98.3014 52.9C98.5014 53.175 98.7014 53.3 98.9014 53.3C99.7264 53.3 100.826 51.1 101.651 48.2C102.126 46.525 102.426 45.05 102.426 44.1C102.426 43.35 102.251 42.925 101.876 42.925C101.051 42.925 99.6014 44.5 98.2764 46.675C97.3764 48.2 96.4264 49.975 95.6264 51.7C95.2764 52.45 95.0014 53.175 94.6014 53.975C94.4764 54.2 94.4014 54.325 94.2514 54.325ZM106.071 54.375C104.946 54.375 104.471 53.1 104.471 51.775C104.471 50.5 104.846 48.875 105.621 47.15C106.621 44.9 108.471 42.1 110.221 42.1C111.146 42.1 111.696 42.975 111.696 43.925C111.696 46.3 109.296 48.225 106.746 48.275C106.321 49.525 106.096 50.65 106.096 51.475C106.096 52.375 106.396 52.95 106.971 52.95C107.596 52.95 108.321 52.2 109.196 50.8L109.646 50.075L110.046 50.225L109.521 51.2C108.371 53.325 107.096 54.375 106.071 54.375ZM106.946 47.7C109.246 47.25 110.896 45.025 110.896 43.65C110.896 43.125 110.646 42.8 110.246 42.8C109.271 42.8 108.021 45.125 107.396 46.55L106.946 47.7ZM112.45 54.2C112.175 54.2 111.75 54.025 111.75 53.75C111.75 53.6 111.85 53.45 111.975 53.125C113.375 49.75 114.65 46.75 115.8 43.375C115.1 43.6 114.4 44.175 113.6 45.325L112.975 46.225L112.5 45.975L113.1 45.075C114.125 43.525 115.6 42.075 116.6 42.075C117.025 42.075 117.225 42.35 117.225 42.725C117.225 43.675 116.15 45.875 114.575 49.725H114.6L116.275 47.075C117.65 44.875 118.475 43.925 119.25 43.2C119.975 42.55 120.775 42.075 121.275 42.075C121.9 42.075 122.175 42.7 122.175 43.375C122.175 44.375 121.55 45.8 121 46.925L118.175 52.725C119.15 52.625 120.225 51.55 120.95 50.525L121.3 50.025L121.775 50.3L121.4 50.85C120.2 52.575 118.35 54.225 117.15 54.225C116.725 54.225 116.475 53.925 116.475 53.575C116.475 52.95 117.225 51.475 118.3 49.25L119.25 47.3C120 45.75 120.625 44.425 120.625 43.75C120.625 43.45 120.45 43.25 120.225 43.25C119.525 43.25 118.525 44.525 117.225 46.3C115.8 48.225 114.175 51.275 113.35 53.275C113.125 53.8 113.025 54.2 112.45 54.2ZM123.801 54.35C123.426 54.35 123.251 54.125 123.226 53.675C123.251 53.25 123.576 52.525 123.826 51.8L126.751 43.35H124.926L125.251 42.4H127.051L128.051 39.25C128.251 38.6 128.576 38.475 129.101 38.475C129.526 38.475 129.701 38.65 129.701 38.925C129.701 39.1 129.651 39.275 129.426 39.875L128.476 42.4H130.676L130.326 43.35H128.226L125.226 52.175C125.826 51.875 126.601 51.15 127.176 50.2L127.476 49.7L128.051 49.975L127.701 50.525C126.676 52.125 124.676 54.35 123.801 54.35ZM134.164 51.725C133.239 53.025 132.039 54.375 130.864 54.375C130.239 54.375 129.889 53.925 129.889 53.35C129.889 52.85 130.189 51.9 130.764 50.675C131.864 48.35 133.489 45.25 134.514 43.45C133.364 43.6 132.114 44.875 131.689 45.325L131.239 45.825L130.864 45.55L131.489 44.825C132.564 43.6 134.289 42.175 135.214 42.175C135.614 42.175 135.839 42.525 135.839 43C135.839 43.45 135.664 44.1 135.289 44.925C134.439 46.725 132.589 50.325 131.264 53.125C131.989 53.125 133.064 52.325 133.714 51.45L134.139 50.875L134.614 51.125L134.164 51.725ZM136.114 38.2C135.489 38.2 134.989 37.7 134.989 37.075C134.989 36.45 135.489 35.95 136.114 35.95C136.739 35.95 137.239 36.45 137.239 37.075C137.239 37.7 136.739 38.2 136.114 38.2ZM137.935 54.325C136.76 54.325 136.16 53.025 136.16 51.55C136.16 50.325 136.56 48.775 137.36 47.2C138.96 44.05 141.185 42.025 142.735 42.025C143.535 42.025 144.16 42.6 144.16 43.35C144.16 44.025 143.76 44.55 143.235 44.55C142.785 44.55 142.535 44.2 142.41 43.45C142.36 43.175 142.235 43.075 142.01 43.075C141.035 43.075 139.735 44.85 138.76 47.3C138.135 48.825 137.785 50.25 137.785 51.25C137.785 52.225 138.11 52.8 138.785 52.8C139.51 52.8 140.285 52.025 141.185 50.625L141.46 50.2L141.86 50.4L141.56 50.9C140.51 52.65 139.21 54.325 137.935 54.325ZM149.812 53.4L150.837 49.625L151.587 49.575V50.225C151.587 52.425 152.737 53.775 154.387 53.775C156.537 53.775 158.162 52.075 158.162 49.65C158.162 48.175 157.662 47 156.787 45.375C155.387 42.725 154.387 41.175 154.387 39.2C154.387 36.575 156.637 34.85 159.412 34.85C160.162 34.85 160.962 35.05 161.737 35.35L163.037 35.85L162.462 39.6H161.812L161.787 39.2C161.712 37.075 160.512 35.625 159.012 35.625C157.437 35.625 156.287 36.875 156.287 38.625C156.287 39.95 156.862 41.025 158.287 43.65C159.237 45.325 160.187 46.9 160.187 48.875C160.187 52.325 157.462 54.6 154.062 54.6C153.212 54.6 152.387 54.475 151.312 54.125C150.812 53.95 150.337 53.7 149.812 53.4ZM163.713 54.375C162.588 54.375 162.113 53.1 162.113 51.775C162.113 50.5 162.488 48.875 163.263 47.15C164.263 44.9 166.113 42.1 167.863 42.1C168.788 42.1 169.338 42.975 169.338 43.925C169.338 46.3 166.938 48.225 164.388 48.275C163.963 49.525 163.738 50.65 163.738 51.475C163.738 52.375 164.038 52.95 164.613 52.95C165.237 52.95 165.963 52.2 166.838 50.8L167.288 50.075L167.688 50.225L167.163 51.2C166.013 53.325 164.738 54.375 163.713 54.375ZM164.588 47.7C166.888 47.25 168.537 45.025 168.537 43.65C168.537 43.125 168.288 42.8 167.888 42.8C166.913 42.8 165.663 45.125 165.038 46.55L164.588 47.7ZM169.992 54.275C169.567 54.275 169.292 54 169.292 53.625C169.292 53.25 169.367 52.85 169.692 51.975L175.492 36.85C175.742 36.175 175.867 35.8 175.867 35.575C175.867 35.025 175.342 34.95 174.542 34.925L173.942 34.9L174.142 34.2L174.967 34.225C176.042 34.25 177.017 34.15 178.042 34.025L178.142 34.15C177.517 35.65 176.892 37.2 176.292 38.75L170.867 52.725C171.867 52.4 173.042 51.375 173.892 50.125L174.217 49.65L174.692 49.95L174.392 50.425C173.367 52.025 171.242 54.275 169.992 54.275ZM169.034 59.825C169.034 59.225 169.434 58.9 170.009 58.9C170.634 58.9 170.934 59.475 171.009 59.925L171.034 60.1C171.109 60.6 171.434 60.725 171.934 60.725C172.709 60.725 173.559 59.775 173.984 59.2C175.334 57.3 175.934 54.6 176.934 51.05L179.084 43.35H176.784L176.959 42.4H179.334L179.709 41.1C180.184 39.375 180.684 37.975 181.434 36.775C182.334 35.325 184.134 33.65 186.234 33.65C187.259 33.65 188.434 34.3 188.434 35.3C188.434 35.8 188.109 36.25 187.334 36.25C186.659 36.25 186.284 35.6 186.284 35C186.284 34.875 186.309 34.775 186.309 34.675C186.309 34.425 186.034 34.375 185.734 34.375C185.234 34.375 184.384 34.65 183.834 35.2C182.684 36.3 182.009 38.1 180.959 42.025L180.859 42.4H182.984L182.634 43.35H180.609L178.809 50.075C178.059 52.85 177.434 54.85 176.809 56.325C176.109 57.975 175.084 59.525 173.784 60.525C173.009 61.125 172.109 61.525 171.259 61.525C170.384 61.525 169.034 60.825 169.034 59.825Z" fill="white"/>
</svg>
