<svg width="102" height="28" viewBox="0 0 102 28" fill="none" xmlns="http://www.w3.org/2000/svg">
<path d="M6.81523 9.055L6.89223 8.648L7.59623 8.582C7.93723 8.549 8.09123 8.472 8.19023 8.34C8.27823 8.208 8.33324 8.032 8.35523 7.702L8.53123 5.535L4.83523 5.491L2.94323 7.394C2.55823 7.779 2.40423 8.021 2.40423 8.208C2.40423 8.505 2.76723 8.56 3.05323 8.593L3.63623 8.659L3.57023 9.044L2.75623 9C2.07423 8.967 1.41423 8.945 0.732234 8.978L0.204234 9L0.259234 8.582L0.435234 8.549C1.27123 8.395 1.78823 7.988 2.76723 7.009L9.27923 0.464L9.79623 0.496999L9.76323 0.804999C9.68623 1.553 9.59824 2.29 9.51023 3.478L9.18023 7.757C9.15823 8.065 9.12523 8.274 9.23523 8.417C9.30124 8.494 9.40024 8.549 9.69723 8.582L10.3132 8.659L10.3022 9.055L9.62023 9.011C8.89424 8.967 8.16823 8.956 7.44223 9.011L6.81523 9.055ZM5.18723 5.139L8.56423 5.183L8.86123 1.454L5.18723 5.139ZM14.1959 4.732L14.1739 4.644C14.1409 4.479 14.0969 4.402 14.0089 4.402C13.8549 4.402 13.6459 4.71 13.5469 4.864C13.3379 5.172 13.0739 5.623 12.7659 6.228C12.3149 7.108 11.9189 7.977 11.4899 8.857C11.4019 9.044 11.3579 9.077 11.1379 9.077H11.0389C10.8629 9.077 10.8189 9.011 10.8189 8.923C10.8189 8.868 10.8299 8.813 10.9289 8.538L11.5119 6.91C11.8089 6.03 12.1279 5.161 12.3589 4.369C12.0839 4.413 11.7869 4.765 11.5559 5.106L11.3139 5.469L11.1159 5.359L11.4569 4.842C12.0069 4.017 12.4359 3.665 12.7329 3.665C12.8649 3.665 12.9529 3.808 12.9529 4.072C12.9529 4.347 12.8649 4.776 12.6229 5.436L11.7649 7.735L12.7329 5.832C13.3819 4.545 13.8329 3.676 14.3829 3.676C14.6799 3.676 14.9109 4.028 14.9109 4.369C14.9109 4.721 14.8009 4.974 14.5039 4.974C14.3279 4.974 14.2509 4.908 14.1959 4.732ZM14.8623 9.154C14.6973 9.154 14.6203 9.055 14.6093 8.857C14.6203 8.67 14.7633 8.351 14.8733 8.032L16.1603 4.314H15.3573L15.5003 3.896H16.2923L16.7323 2.51C16.8203 2.224 16.9633 2.169 17.1943 2.169C17.3813 2.169 17.4583 2.246 17.4583 2.367C17.4583 2.444 17.4363 2.521 17.3373 2.785L16.9193 3.896H17.8873L17.7333 4.314H16.8093L15.4893 8.197C15.7533 8.065 16.0943 7.746 16.3473 7.328L16.4793 7.108L16.7323 7.229L16.5783 7.471C16.1273 8.175 15.2473 9.154 14.8623 9.154ZM24.2622 9.055C22.0842 9.055 20.9732 7.68 20.9732 6.129C20.9732 4.776 22.4032 3.082 23.9542 3.082C24.5702 3.082 25.0652 3.379 25.1862 3.808L26.7922 2.213C26.9352 2.07 27.0452 1.982 27.0452 1.861C27.0452 1.762 26.9572 1.707 26.8582 1.641C26.7042 1.542 26.6492 1.421 26.6492 1.289C26.6492 0.992 27.0232 0.662 27.3202 0.662C27.5732 0.662 27.8702 0.903999 27.8702 1.201C27.8702 1.575 27.5292 1.938 27.0892 2.378C26.3302 3.126 25.5492 3.852 24.7902 4.6C23.8992 5.48 23.0302 6.393 22.1502 7.284C22.5792 7.9 23.3932 8.241 24.6032 8.241C25.7362 8.241 27.1332 7.757 28.3322 6.613C28.8712 6.096 29.3882 5.447 29.8942 4.479L30.0702 4.138L29.8282 3.918L29.5312 3.643C29.1022 3.236 28.7502 3.06 28.2332 3.049C27.7712 3.049 27.4192 3.346 27.4192 3.841C27.4192 4.039 27.5072 4.193 27.6502 4.193C27.7822 4.193 27.8262 4.083 27.8592 3.951C27.8922 3.83 27.9912 3.687 28.1452 3.687C28.3212 3.687 28.4422 3.852 28.4422 4.039C28.4422 4.336 28.2112 4.6 27.8702 4.6C27.4412 4.6 27.1552 4.27 27.1552 3.863C27.1552 3.082 27.8042 2.62 28.6292 2.62C29.3552 2.62 29.8942 3.016 30.3122 3.368L30.4662 3.5C30.9722 3.94 31.2252 4.193 31.5882 4.193C31.9732 4.193 32.2592 3.918 32.2592 3.555C32.2592 3.302 32.1162 3.082 31.9182 3.082C31.8192 3.082 31.7862 3.115 31.7422 3.148C31.6872 3.181 31.6212 3.247 31.4452 3.247C31.2362 3.247 31.0932 3.104 31.0932 2.95C31.0932 2.763 31.2912 2.609 31.5882 2.609C32.1382 2.609 32.5122 3.038 32.5122 3.522C32.5122 4.215 31.9842 4.743 31.2802 4.743C30.9392 4.743 30.6422 4.6 30.2902 4.325L30.1032 4.677C29.6302 5.568 29.1352 6.261 28.5742 6.855C27.6172 7.856 25.8572 9.055 24.2622 9.055ZM24.5262 4.468C24.3612 4.358 24.2292 4.193 24.2292 3.929C24.2292 3.632 24.2072 3.412 23.8662 3.412C22.8322 3.412 21.7872 4.754 21.7872 5.997C21.7872 6.371 21.8532 6.701 21.9852 6.987L24.5262 4.468ZM35.03 8.736L35.481 7.075L35.811 7.053V7.339C35.811 8.307 36.317 8.901 37.043 8.901C37.989 8.901 38.704 8.153 38.704 7.086C38.704 6.437 38.484 5.92 38.099 5.205C37.483 4.039 37.043 3.357 37.043 2.488C37.043 1.333 38.033 0.574 39.254 0.574C39.584 0.574 39.936 0.662 40.277 0.793999L40.849 1.014L40.596 2.664H40.31L40.299 2.488C40.266 1.553 39.738 0.915 39.078 0.915C38.385 0.915 37.879 1.465 37.879 2.235C37.879 2.818 38.132 3.291 38.759 4.446C39.177 5.183 39.595 5.876 39.595 6.745C39.595 8.263 38.396 9.264 36.9 9.264C36.526 9.264 36.163 9.209 35.69 9.055C35.47 8.978 35.261 8.868 35.03 8.736ZM41.2232 9.143C40.7062 9.143 40.4422 8.571 40.4422 7.922C40.4422 7.383 40.6182 6.701 40.9702 6.008C41.6742 4.622 42.6532 3.731 43.3352 3.731C43.6872 3.731 43.9622 3.984 43.9622 4.314C43.9622 4.611 43.7862 4.842 43.5552 4.842C43.3572 4.842 43.2472 4.688 43.1922 4.358C43.1702 4.237 43.1152 4.193 43.0162 4.193C42.5872 4.193 42.0152 4.974 41.5862 6.052C41.3112 6.723 41.1572 7.35 41.1572 7.79C41.1572 8.219 41.3002 8.472 41.5972 8.472C41.9162 8.472 42.2572 8.131 42.6532 7.515L42.7742 7.328L42.9502 7.416L42.8182 7.636C42.3562 8.406 41.7842 9.143 41.2232 9.143ZM45.5579 7.999C45.1509 8.571 44.6229 9.165 44.1059 9.165C43.8309 9.165 43.6769 8.967 43.6769 8.714C43.6769 8.494 43.8089 8.076 44.0619 7.537C44.5459 6.514 45.2609 5.15 45.7119 4.358C45.2059 4.424 44.6559 4.985 44.4689 5.183L44.2709 5.403L44.1059 5.282L44.3809 4.963C44.8539 4.424 45.6129 3.797 46.0199 3.797C46.1959 3.797 46.2949 3.951 46.2949 4.16C46.2949 4.358 46.2179 4.644 46.0529 5.007C45.6789 5.799 44.8649 7.383 44.2819 8.615C44.6009 8.615 45.0739 8.263 45.3599 7.878L45.5469 7.625L45.7559 7.735L45.5579 7.999ZM46.4159 2.048C46.1409 2.048 45.9209 1.828 45.9209 1.553C45.9209 1.278 46.1409 1.058 46.4159 1.058C46.6909 1.058 46.9109 1.278 46.9109 1.553C46.9109 1.828 46.6909 2.048 46.4159 2.048ZM47.1404 9.165C46.6454 9.165 46.4364 8.604 46.4364 8.021C46.4364 7.46 46.6014 6.745 46.9424 5.986C47.3824 4.996 48.1964 3.764 48.9664 3.764C49.3734 3.764 49.6154 4.149 49.6154 4.567C49.6154 5.612 48.5594 6.459 47.4374 6.481C47.2504 7.031 47.1514 7.526 47.1514 7.889C47.1514 8.285 47.2834 8.538 47.5364 8.538C47.8114 8.538 48.1304 8.208 48.5154 7.592L48.7134 7.273L48.8894 7.339L48.6584 7.768C48.1524 8.703 47.5914 9.165 47.1404 9.165ZM47.5254 6.228C48.5374 6.03 49.2634 5.051 49.2634 4.446C49.2634 4.215 49.1534 4.072 48.9774 4.072C48.5484 4.072 47.9984 5.095 47.7234 5.722L47.5254 6.228ZM49.9474 9.088C49.8264 9.088 49.6394 9.011 49.6394 8.89C49.6394 8.824 49.6834 8.758 49.7384 8.615C50.3544 7.13 50.9154 5.81 51.4214 4.325C51.1134 4.424 50.8054 4.677 50.4534 5.183L50.1784 5.579L49.9694 5.469L50.2334 5.073C50.6844 4.391 51.3334 3.753 51.7734 3.753C51.9604 3.753 52.0484 3.874 52.0484 4.039C52.0484 4.457 51.5754 5.425 50.8824 7.119H50.8934L51.6304 5.953C52.2354 4.985 52.5984 4.567 52.9394 4.248C53.2584 3.962 53.6104 3.753 53.8304 3.753C54.1054 3.753 54.2264 4.028 54.2264 4.325C54.2264 4.765 53.9514 5.392 53.7094 5.887L52.4664 8.439C52.8954 8.395 53.3684 7.922 53.6874 7.471L53.8414 7.251L54.0504 7.372L53.8854 7.614C53.3574 8.373 52.5434 9.099 52.0154 9.099C51.8284 9.099 51.7184 8.967 51.7184 8.813C51.7184 8.538 52.0484 7.889 52.5214 6.91L52.9394 6.052C53.2694 5.37 53.5444 4.787 53.5444 4.49C53.5444 4.358 53.4674 4.27 53.3684 4.27C53.0604 4.27 52.6204 4.831 52.0484 5.612C51.4214 6.459 50.7064 7.801 50.3434 8.681C50.2444 8.912 50.2004 9.088 49.9474 9.088ZM55.3814 9.143C54.8644 9.143 54.6004 8.571 54.6004 7.922C54.6004 7.383 54.7764 6.701 55.1284 6.008C55.8324 4.622 56.8114 3.731 57.4934 3.731C57.8454 3.731 58.1204 3.984 58.1204 4.314C58.1204 4.611 57.9444 4.842 57.7134 4.842C57.5154 4.842 57.4054 4.688 57.3504 4.358C57.3284 4.237 57.2734 4.193 57.1744 4.193C56.7454 4.193 56.1734 4.974 55.7444 6.052C55.4694 6.723 55.3154 7.35 55.3154 7.79C55.3154 8.219 55.4584 8.472 55.7554 8.472C56.0744 8.472 56.4154 8.131 56.8114 7.515L56.9324 7.328L57.1084 7.416L56.9764 7.636C56.5144 8.406 55.9424 9.143 55.3814 9.143ZM58.4841 9.165C57.9891 9.165 57.7801 8.604 57.7801 8.021C57.7801 7.46 57.9451 6.745 58.2861 5.986C58.7261 4.996 59.5401 3.764 60.3101 3.764C60.7171 3.764 60.9591 4.149 60.9591 4.567C60.9591 5.612 59.9031 6.459 58.7811 6.481C58.5941 7.031 58.4951 7.526 58.4951 7.889C58.4951 8.285 58.6271 8.538 58.8801 8.538C59.1551 8.538 59.4741 8.208 59.8591 7.592L60.0571 7.273L60.2331 7.339L60.0021 7.768C59.4961 8.703 58.9351 9.165 58.4841 9.165ZM58.8691 6.228C59.8811 6.03 60.6071 5.051 60.6071 4.446C60.6071 4.215 60.4971 4.072 60.3211 4.072C59.8921 4.072 59.3421 5.095 59.0671 5.722L58.8691 6.228ZM66.8461 9.011C66.1751 8.967 65.5151 8.945 64.8441 8.945H63.9201L63.9861 8.615L64.4591 8.582C64.9321 8.549 65.1191 8.428 65.2401 8.285C65.3721 8.12 65.4161 7.9 65.4931 7.504L66.6151 1.894C66.6701 1.652 66.6921 1.553 66.6921 1.454C66.6811 1.135 66.4281 1.113 66.0981 1.091L65.3831 1.047L65.4491 0.706L65.9221 0.717C66.9341 0.738999 68.2761 0.761 69.9371 0.772L72.1481 0.761L72.0931 1.025C72.0051 1.454 71.9391 1.806 71.8621 2.268L71.8181 2.543L71.4771 2.521L71.5101 2.279C71.5541 1.916 71.4991 1.652 71.3341 1.476C71.1361 1.245 70.7401 1.157 69.8381 1.157H69.0461C68.5841 1.157 68.1111 1.179 67.6491 1.19L67.0111 4.204L69.3431 4.226C69.7391 4.226 69.9261 4.204 70.0581 4.127C70.2121 4.039 70.2891 3.896 70.3991 3.489L70.4981 3.126H70.8061L70.6961 3.621C70.5641 4.193 70.4541 4.787 70.3771 5.414L70.3331 5.777H70.0031L70.0691 5.436C70.1351 5.106 70.1131 4.919 70.0141 4.787C69.9261 4.644 69.7611 4.567 69.3761 4.567L66.9451 4.534L66.3731 7.493C66.3071 7.812 66.2851 7.966 66.2851 8.087C66.2851 8.208 66.3071 8.285 66.3511 8.351C66.4281 8.472 66.5601 8.538 66.9341 8.593L67.7701 8.714L67.6931 9.066L66.8461 9.011ZM71.1046 7.581C71.1046 7.064 71.2146 6.47 71.4566 5.876C71.9736 4.611 72.8866 3.742 73.6346 3.742C74.4046 3.742 74.6906 4.578 74.6906 5.337C74.6906 5.854 74.5806 6.448 74.3386 7.042C73.8216 8.318 72.9196 9.176 72.1716 9.176C71.4016 9.176 71.1046 8.34 71.1046 7.581ZM72.1386 8.89C72.6226 8.89 73.3046 7.999 73.7556 6.778C73.9976 6.107 74.1296 5.458 74.1296 4.963C74.1296 4.413 73.9646 4.05 73.6566 4.05C73.1726 4.05 72.4796 4.941 72.0396 6.151C71.7976 6.822 71.6766 7.46 71.6766 7.955C71.6766 8.516 71.8306 8.89 72.1386 8.89ZM78.5631 4.732L78.5411 4.644C78.5081 4.479 78.4641 4.402 78.3761 4.402C78.2221 4.402 78.0131 4.71 77.9141 4.864C77.7051 5.172 77.4411 5.623 77.1331 6.228C76.6821 7.108 76.2861 7.977 75.8571 8.857C75.7691 9.044 75.7251 9.077 75.5051 9.077H75.4061C75.2301 9.077 75.1861 9.011 75.1861 8.923C75.1861 8.868 75.1971 8.813 75.2961 8.538L75.8791 6.91C76.1761 6.03 76.4951 5.161 76.7261 4.369C76.4511 4.413 76.1541 4.765 75.9231 5.106L75.6811 5.469L75.4831 5.359L75.8241 4.842C76.3741 4.017 76.8031 3.665 77.1001 3.665C77.2321 3.665 77.3201 3.808 77.3201 4.072C77.3201 4.347 77.2321 4.776 76.9901 5.436L76.1321 7.735L77.1001 5.832C77.7491 4.545 78.2001 3.676 78.7501 3.676C79.0471 3.676 79.2781 4.028 79.2781 4.369C79.2781 4.721 79.1681 4.974 78.8711 4.974C78.6951 4.974 78.6181 4.908 78.5631 4.732ZM86.6215 9.044C85.8185 8.989 85.0815 9 84.2785 9.055L83.7945 9.088L83.8275 8.714L84.2895 8.659C84.7295 8.604 84.9165 8.505 85.0485 8.362C85.2135 8.164 85.2685 7.878 85.3675 7.405L85.7855 5.304L84.5755 2.235C84.3885 1.773 84.3115 1.586 84.1905 1.443C84.0805 1.311 83.9485 1.234 83.6075 1.157L83.3655 1.102L83.4205 0.728L83.8165 0.761C84.3885 0.804999 84.9605 0.793999 85.5325 0.749999L86.1375 0.706L86.0715 1.08L85.8625 1.124C85.4005 1.223 85.2795 1.388 85.2795 1.586C85.2795 1.707 85.3235 1.839 85.4555 2.169L86.5335 4.93L89.7015 1.905C89.9215 1.696 89.9655 1.608 89.9655 1.52C89.9655 1.355 89.7675 1.212 89.3165 1.124L89.0305 1.069L89.0965 0.738999L89.5805 0.772C90.1965 0.816 90.7135 0.804999 91.2195 0.783L91.7255 0.761L91.7145 1.069L91.5165 1.124C91.0325 1.256 90.6585 1.487 90.0315 2.07L86.6545 5.238L86.1375 7.834C86.0715 8.164 86.0495 8.263 86.0495 8.329C86.0495 8.593 86.2365 8.615 86.8085 8.681L87.2155 8.725L87.1495 9.077L86.6215 9.044ZM88.9044 7.581C88.9044 7.064 89.0144 6.47 89.2564 5.876C89.7734 4.611 90.6864 3.742 91.4344 3.742C92.2044 3.742 92.4904 4.578 92.4904 5.337C92.4904 5.854 92.3804 6.448 92.1384 7.042C91.6214 8.318 90.7194 9.176 89.9714 9.176C89.2014 9.176 88.9044 8.34 88.9044 7.581ZM89.9384 8.89C90.4224 8.89 91.1044 7.999 91.5554 6.778C91.7974 6.107 91.9294 5.458 91.9294 4.963C91.9294 4.413 91.7644 4.05 91.4564 4.05C90.9724 4.05 90.2794 4.941 89.8394 6.151C89.5974 6.822 89.4764 7.46 89.4764 7.955C89.4764 8.516 89.6304 8.89 89.9384 8.89ZM93.1949 9.154C92.9859 9.154 92.8979 8.978 92.8979 8.747C92.8979 8.252 93.2169 7.592 93.4919 6.998L94.6469 4.523C94.2839 4.677 93.9209 4.996 93.6129 5.414L93.3819 5.722L93.2059 5.579L93.4479 5.249C93.9869 4.512 94.7459 3.797 95.2739 3.797C95.3949 3.797 95.4499 3.885 95.4499 4.039C95.4499 4.38 95.0979 4.974 94.6799 5.887L94.2399 6.833C93.9429 7.482 93.6789 8.01 93.6789 8.175C93.6789 8.263 93.7229 8.318 93.8109 8.318C94.1959 8.318 95.6479 6.613 96.2749 5.502C96.5499 5.018 96.7919 4.336 96.8909 4.116C96.9899 3.896 97.0999 3.775 97.2759 3.775C97.4189 3.775 97.5289 3.885 97.5289 4.061C97.5289 4.215 97.4739 4.38 97.3639 4.644L95.8349 8.439C96.1209 8.318 96.5059 7.955 96.7809 7.603L96.9679 7.361L97.1439 7.471L96.9679 7.724C96.4509 8.472 95.7909 9.143 95.4279 9.143C95.2519 9.143 95.1969 9.022 95.1969 8.835C95.1969 8.472 95.3729 8.098 95.5489 7.669L96.1869 6.107L96.1759 6.096L95.3839 7.086C94.0859 8.703 93.4479 9.154 93.1949 9.154ZM101.261 4.732L101.239 4.644C101.206 4.479 101.162 4.402 101.074 4.402C100.92 4.402 100.711 4.71 100.612 4.864C100.403 5.172 100.139 5.623 99.8313 6.228C99.3803 7.108 98.9843 7.977 98.5553 8.857C98.4673 9.044 98.4233 9.077 98.2033 9.077H98.1043C97.9283 9.077 97.8843 9.011 97.8843 8.923C97.8843 8.868 97.8953 8.813 97.9943 8.538L98.5773 6.91C98.8743 6.03 99.1933 5.161 99.4243 4.369C99.1493 4.413 98.8523 4.765 98.6213 5.106L98.3793 5.469L98.1813 5.359L98.5223 4.842C99.0723 4.017 99.5013 3.665 99.7983 3.665C99.9303 3.665 100.018 3.808 100.018 4.072C100.018 4.347 99.9303 4.776 99.6883 5.436L98.8303 7.735L99.7983 5.832C100.447 4.545 100.898 3.676 101.448 3.676C101.745 3.676 101.976 4.028 101.976 4.369C101.976 4.721 101.866 4.974 101.569 4.974C101.393 4.974 101.316 4.908 101.261 4.732ZM28.7938 24.055L28.8708 23.648L29.5748 23.582C29.9158 23.549 30.0698 23.472 30.1688 23.34C30.2568 23.208 30.3118 23.032 30.3338 22.702L30.5098 20.535L26.8138 20.491L24.9218 22.394C24.5368 22.779 24.3828 23.021 24.3828 23.208C24.3828 23.505 24.7458 23.56 25.0318 23.593L25.6148 23.659L25.5488 24.044L24.7348 24C24.0528 23.967 23.3928 23.945 22.7108 23.978L22.1827 24L22.2377 23.582L22.4137 23.549C23.2498 23.395 23.7668 22.988 24.7458 22.009L31.2578 15.464L31.7748 15.497L31.7418 15.805C31.6648 16.553 31.5768 17.29 31.4888 18.478L31.1588 22.757C31.1368 23.065 31.1038 23.274 31.2138 23.417C31.2798 23.494 31.3788 23.549 31.6758 23.582L32.2918 23.659L32.2808 24.055L31.5988 24.011C30.8728 23.967 30.1468 23.956 29.4208 24.011L28.7938 24.055ZM27.1658 20.139L30.5428 20.183L30.8398 16.454L27.1658 20.139ZM33.1138 24.154C32.9048 24.154 32.8168 23.978 32.8168 23.747C32.8168 23.252 33.1358 22.592 33.4108 21.998L34.5658 19.523C34.2028 19.677 33.8398 19.996 33.5318 20.414L33.3008 20.722L33.1248 20.579L33.3668 20.249C33.9058 19.512 34.6648 18.797 35.1928 18.797C35.3138 18.797 35.3688 18.885 35.3688 19.039C35.3688 19.38 35.0168 19.974 34.5988 20.887L34.1588 21.833C33.8618 22.482 33.5978 23.01 33.5978 23.175C33.5978 23.263 33.6418 23.318 33.7298 23.318C34.1148 23.318 35.5668 21.613 36.1938 20.502C36.4688 20.018 36.7108 19.336 36.8098 19.116C36.9088 18.896 37.0188 18.775 37.1948 18.775C37.3378 18.775 37.4478 18.885 37.4478 19.061C37.4478 19.215 37.3928 19.38 37.2828 19.644L35.7538 23.439C36.0398 23.318 36.4248 22.955 36.6998 22.603L36.8868 22.361L37.0628 22.471L36.8868 22.724C36.3698 23.472 35.7098 24.143 35.3468 24.143C35.1708 24.143 35.1158 24.022 35.1158 23.835C35.1158 23.472 35.2918 23.098 35.4678 22.669L36.1058 21.107L36.0948 21.096L35.3028 22.086C34.0048 23.703 33.3668 24.154 33.1138 24.154ZM37.9903 24.154C37.8253 24.154 37.7483 24.055 37.7373 23.857C37.7483 23.67 37.8913 23.351 38.0013 23.032L39.2883 19.314H38.4853L38.6283 18.896H39.4203L39.8603 17.51C39.9483 17.224 40.0913 17.169 40.3223 17.169C40.5093 17.169 40.5863 17.246 40.5863 17.367C40.5863 17.444 40.5643 17.521 40.4653 17.785L40.0473 18.896H41.0153L40.8613 19.314H39.9373L38.6173 23.197C38.8813 23.065 39.2223 22.746 39.4753 22.328L39.6073 22.108L39.8603 22.229L39.7063 22.471C39.2553 23.175 38.3753 24.154 37.9903 24.154ZM40.8011 24.143C40.7571 24.143 40.7351 24.132 40.6361 24.088C40.4711 24 40.4161 23.945 40.4161 23.868C40.4161 23.824 40.4271 23.78 40.4601 23.681L43.1991 16.487C43.3201 16.168 43.3641 15.992 43.3641 15.849C43.3641 15.629 43.1551 15.607 42.9021 15.596L42.7151 15.585L42.7811 15.277L43.1331 15.288C43.3971 15.299 43.7821 15.288 44.1231 15.255L44.2441 15.244L44.3431 15.321L44.2771 15.486C43.5071 17.411 42.7811 19.336 42.0221 21.261L42.6601 20.304C43.2651 19.391 43.8041 18.797 44.2441 18.797C44.7061 18.797 45.0251 19.49 45.0251 20.315C45.0251 20.601 44.9811 20.909 44.8931 21.217C44.3981 22.911 43.3201 24.143 42.4071 24.143C42.0881 24.143 41.8131 24 41.8131 23.681C41.8131 23.417 42.0001 23.263 42.1981 23.263C42.3521 23.263 42.4511 23.351 42.5391 23.461L42.5831 23.516C42.6711 23.637 42.7591 23.692 42.8471 23.692C43.2101 23.692 43.6941 22.724 44.0571 21.448C44.2661 20.711 44.3981 20.062 44.3981 19.644C44.3981 19.314 44.3211 19.127 44.1561 19.127C43.7931 19.127 43.1551 19.82 42.5721 20.777C42.1761 21.448 41.7581 22.229 41.4061 22.988C41.2521 23.318 41.1311 23.637 40.9551 23.989C40.9001 24.088 40.8671 24.143 40.8011 24.143ZM46.0017 24.165C45.5067 24.165 45.2977 23.604 45.2977 23.021C45.2977 22.46 45.4627 21.745 45.8037 20.986C46.2437 19.996 47.0577 18.764 47.8277 18.764C48.2347 18.764 48.4767 19.149 48.4767 19.567C48.4767 20.612 47.4207 21.459 46.2987 21.481C46.1117 22.031 46.0127 22.526 46.0127 22.889C46.0127 23.285 46.1447 23.538 46.3977 23.538C46.6727 23.538 46.9917 23.208 47.3767 22.592L47.5747 22.273L47.7507 22.339L47.5197 22.768C47.0137 23.703 46.4527 24.165 46.0017 24.165ZM46.3867 21.228C47.3987 21.03 48.1247 20.051 48.1247 19.446C48.1247 19.215 48.0147 19.072 47.8387 19.072C47.4097 19.072 46.8597 20.095 46.5847 20.722L46.3867 21.228ZM48.8087 24.088C48.6877 24.088 48.5007 24.011 48.5007 23.89C48.5007 23.824 48.5447 23.758 48.5997 23.615C49.2157 22.13 49.7767 20.81 50.2827 19.325C49.9747 19.424 49.6667 19.677 49.3147 20.183L49.0397 20.579L48.8307 20.469L49.0947 20.073C49.5457 19.391 50.1947 18.753 50.6347 18.753C50.8217 18.753 50.9097 18.874 50.9097 19.039C50.9097 19.457 50.4367 20.425 49.7437 22.119H49.7547L50.4917 20.953C51.0967 19.985 51.4597 19.567 51.8007 19.248C52.1197 18.962 52.4717 18.753 52.6917 18.753C52.9667 18.753 53.0877 19.028 53.0877 19.325C53.0877 19.765 52.8127 20.392 52.5707 20.887L51.3277 23.439C51.7567 23.395 52.2297 22.922 52.5487 22.471L52.7027 22.251L52.9117 22.372L52.7467 22.614C52.2187 23.373 51.4047 24.099 50.8767 24.099C50.6897 24.099 50.5797 23.967 50.5797 23.813C50.5797 23.538 50.9097 22.889 51.3827 21.91L51.8007 21.052C52.1307 20.37 52.4057 19.787 52.4057 19.49C52.4057 19.358 52.3287 19.27 52.2297 19.27C51.9217 19.27 51.4817 19.831 50.9097 20.612C50.2827 21.459 49.5677 22.801 49.2047 23.681C49.1057 23.912 49.0617 24.088 48.8087 24.088ZM53.8028 24.154C53.6378 24.154 53.5608 24.055 53.5498 23.857C53.5608 23.67 53.7038 23.351 53.8138 23.032L55.1008 19.314H54.2978L54.4408 18.896H55.2328L55.6728 17.51C55.7608 17.224 55.9038 17.169 56.1348 17.169C56.3218 17.169 56.3988 17.246 56.3988 17.367C56.3988 17.444 56.3768 17.521 56.2778 17.785L55.8598 18.896H56.8278L56.6738 19.314H55.7498L54.4298 23.197C54.6938 23.065 55.0348 22.746 55.2878 22.328L55.4198 22.108L55.6728 22.229L55.5188 22.471C55.0678 23.175 54.1878 24.154 53.8028 24.154ZM58.3626 22.999C57.9556 23.571 57.4276 24.165 56.9106 24.165C56.6356 24.165 56.4816 23.967 56.4816 23.714C56.4816 23.494 56.6136 23.076 56.8666 22.537C57.3506 21.514 58.0656 20.15 58.5166 19.358C58.0106 19.424 57.4606 19.985 57.2736 20.183L57.0756 20.403L56.9106 20.282L57.1856 19.963C57.6586 19.424 58.4176 18.797 58.8246 18.797C59.0006 18.797 59.0996 18.951 59.0996 19.16C59.0996 19.358 59.0226 19.644 58.8576 20.007C58.4836 20.799 57.6696 22.383 57.0866 23.615C57.4056 23.615 57.8786 23.263 58.1646 22.878L58.3516 22.625L58.5606 22.735L58.3626 22.999ZM59.2206 17.048C58.9456 17.048 58.7256 16.828 58.7256 16.553C58.7256 16.278 58.9456 16.058 59.2206 16.058C59.4956 16.058 59.7156 16.278 59.7156 16.553C59.7156 16.828 59.4956 17.048 59.2206 17.048ZM60.0221 24.143C59.5051 24.143 59.2411 23.571 59.2411 22.922C59.2411 22.383 59.4171 21.701 59.7691 21.008C60.4731 19.622 61.4521 18.731 62.1341 18.731C62.4861 18.731 62.7611 18.984 62.7611 19.314C62.7611 19.611 62.5851 19.842 62.3541 19.842C62.1561 19.842 62.0461 19.688 61.9911 19.358C61.9691 19.237 61.9141 19.193 61.8151 19.193C61.3861 19.193 60.8141 19.974 60.3851 21.052C60.1101 21.723 59.9561 22.35 59.9561 22.79C59.9561 23.219 60.0991 23.472 60.3961 23.472C60.7151 23.472 61.0561 23.131 61.4521 22.515L61.5731 22.328L61.7491 22.416L61.6171 22.636C61.1551 23.406 60.5831 24.143 60.0221 24.143ZM65.2478 23.736L65.6988 22.075L66.0288 22.053V22.339C66.0288 23.307 66.5348 23.901 67.2608 23.901C68.2068 23.901 68.9218 23.153 68.9218 22.086C68.9218 21.437 68.7018 20.92 68.3168 20.205C67.7008 19.039 67.2608 18.357 67.2608 17.488C67.2608 16.333 68.2508 15.574 69.4718 15.574C69.8018 15.574 70.1538 15.662 70.4948 15.794L71.0668 16.014L70.8138 17.664H70.5278L70.5168 17.488C70.4838 16.553 69.9558 15.915 69.2958 15.915C68.6028 15.915 68.0968 16.465 68.0968 17.235C68.0968 17.818 68.3498 18.291 68.9768 19.446C69.3948 20.183 69.8128 20.876 69.8128 21.745C69.8128 23.263 68.6138 24.264 67.1178 24.264C66.7438 24.264 66.3808 24.209 65.9078 24.055C65.6878 23.978 65.4788 23.868 65.2478 23.736ZM71.364 24.165C70.869 24.165 70.66 23.604 70.66 23.021C70.66 22.46 70.825 21.745 71.166 20.986C71.606 19.996 72.42 18.764 73.19 18.764C73.597 18.764 73.839 19.149 73.839 19.567C73.839 20.612 72.783 21.459 71.661 21.481C71.474 22.031 71.375 22.526 71.375 22.889C71.375 23.285 71.507 23.538 71.76 23.538C72.035 23.538 72.354 23.208 72.739 22.592L72.937 22.273L73.113 22.339L72.882 22.768C72.376 23.703 71.815 24.165 71.364 24.165ZM71.749 21.228C72.761 21.03 73.487 20.051 73.487 19.446C73.487 19.215 73.377 19.072 73.201 19.072C72.772 19.072 72.222 20.095 71.947 20.722L71.749 21.228ZM74.127 24.121C73.94 24.121 73.819 24 73.819 23.835C73.819 23.67 73.852 23.494 73.995 23.109L76.547 16.454C76.657 16.157 76.712 15.992 76.712 15.893C76.712 15.651 76.481 15.618 76.129 15.607L75.865 15.596L75.953 15.288L76.316 15.299C76.789 15.31 77.218 15.266 77.669 15.211L77.713 15.266C77.438 15.926 77.163 16.608 76.899 17.29L74.512 23.439C74.952 23.296 75.469 22.845 75.843 22.295L75.986 22.086L76.195 22.218L76.063 22.427C75.612 23.131 74.677 24.121 74.127 24.121ZM73.7056 26.563C73.7056 26.299 73.8816 26.156 74.1346 26.156C74.4096 26.156 74.5416 26.409 74.5746 26.607L74.5856 26.684C74.6186 26.904 74.7616 26.959 74.9816 26.959C75.3226 26.959 75.6966 26.541 75.8836 26.288C76.4776 25.452 76.7416 24.264 77.1816 22.702L78.1276 19.314H77.1156L77.1926 18.896H78.2376L78.4026 18.324C78.6116 17.565 78.8316 16.949 79.1616 16.421C79.5576 15.783 80.3496 15.046 81.2736 15.046C81.7246 15.046 82.2416 15.332 82.2416 15.772C82.2416 15.992 82.0986 16.19 81.7576 16.19C81.4606 16.19 81.2956 15.904 81.2956 15.64C81.2956 15.585 81.3066 15.541 81.3066 15.497C81.3066 15.387 81.1856 15.365 81.0536 15.365C80.8336 15.365 80.4596 15.486 80.2176 15.728C79.7116 16.212 79.4146 17.004 78.9526 18.731L78.9086 18.896H79.8436L79.6896 19.314H78.7986L78.0066 22.273C77.6766 23.494 77.4016 24.374 77.1266 25.023C76.8186 25.749 76.3676 26.431 75.7956 26.871C75.4546 27.135 75.0586 27.311 74.6846 27.311C74.2996 27.311 73.7056 27.003 73.7056 26.563Z" fill="white"/>
</svg>
