<svg width="359" height="28" viewBox="0 0 359 28" fill="none" xmlns="http://www.w3.org/2000/svg">
<path d="M15.3469 20.12L15.5149 19.232L17.0509 19.088C17.7949 19.016 18.1309 18.848 18.3469 18.56C18.5389 18.272 18.6589 17.888 18.7069 17.168L19.0909 12.44L11.0269 12.344L6.89888 16.496C6.05888 17.336 5.72288 17.864 5.72288 18.272C5.72288 18.92 6.51488 19.04 7.13888 19.112L8.41088 19.256L8.26688 20.096L6.49088 20C5.00288 19.928 3.56288 19.88 2.07488 19.952L0.922875 20L1.04287 19.088L1.42687 19.016C3.25088 18.68 4.37888 17.792 6.51488 15.656L20.7229 1.376L21.8509 1.448L21.7789 2.12C21.6109 3.752 21.4189 5.36 21.2269 7.952L20.5069 17.288C20.4589 17.96 20.3869 18.416 20.6269 18.728C20.7709 18.896 20.9869 19.016 21.6349 19.088L22.9789 19.256L22.9549 20.12L21.4669 20.024C19.8829 19.928 18.2989 19.904 16.7149 20.024L15.3469 20.12ZM11.7949 11.576L19.1629 11.672L19.8109 3.536L11.7949 11.576ZM31.4501 10.688L31.4021 10.496C31.3301 10.136 31.2341 9.968 31.0421 9.968C30.7061 9.968 30.2501 10.64 30.0341 10.976C29.5781 11.648 29.0021 12.632 28.3301 13.952C27.3461 15.872 26.4821 17.768 25.5461 19.688C25.3541 20.096 25.2581 20.168 24.7781 20.168H24.5621C24.1781 20.168 24.0821 20.024 24.0821 19.832C24.0821 19.712 24.1061 19.592 24.3221 18.992L25.5941 15.44C26.2421 13.52 26.9381 11.624 27.4421 9.896C26.8421 9.992 26.1941 10.76 25.6901 11.504L25.1621 12.296L24.7301 12.056L25.4741 10.928C26.6741 9.128 27.6101 8.36 28.2581 8.36C28.5461 8.36 28.7381 8.672 28.7381 9.248C28.7381 9.848 28.5461 10.784 28.0181 12.224L26.1461 17.24L28.2581 13.088C29.6741 10.28 30.6581 8.384 31.8581 8.384C32.5061 8.384 33.0101 9.152 33.0101 9.896C33.0101 10.664 32.7701 11.216 32.1221 11.216C31.7381 11.216 31.5701 11.072 31.4501 10.688ZM32.9042 20.336C32.5442 20.336 32.3762 20.12 32.3522 19.688C32.3762 19.28 32.6882 18.584 32.9282 17.888L35.7362 9.776H33.9842L34.2962 8.864H36.0242L36.9842 5.84C37.1762 5.216 37.4882 5.096 37.9922 5.096C38.4002 5.096 38.5682 5.264 38.5682 5.528C38.5682 5.696 38.5202 5.864 38.3042 6.44L37.3922 8.864H39.5042L39.1682 9.776H37.1522L34.2722 18.248C34.8482 17.96 35.5922 17.264 36.1442 16.352L36.4322 15.872L36.9842 16.136L36.6482 16.664C35.6642 18.2 33.7442 20.336 32.9042 20.336ZM53.4129 20.12C48.6609 20.12 46.2369 17.12 46.2369 13.736C46.2369 10.784 49.3569 7.088 52.7409 7.088C54.0849 7.088 55.1649 7.736 55.4289 8.672L58.9329 5.192C59.2449 4.88 59.4849 4.688 59.4849 4.424C59.4849 4.208 59.2929 4.088 59.0769 3.944C58.7409 3.728 58.6209 3.464 58.6209 3.176C58.6209 2.528 59.4369 1.808 60.0849 1.808C60.6369 1.808 61.2849 2.336 61.2849 2.984C61.2849 3.8 60.5409 4.592 59.5809 5.552C57.9249 7.184 56.2209 8.768 54.5649 10.4C52.6209 12.32 50.7249 14.312 48.8049 16.256C49.7409 17.6 51.5169 18.344 54.1569 18.344C56.6289 18.344 59.6769 17.288 62.2929 14.792C63.4689 13.664 64.5969 12.248 65.7009 10.136L66.0849 9.392L65.5569 8.912L64.9089 8.312C63.9729 7.424 63.2049 7.04 62.0769 7.016C61.0689 7.016 60.3009 7.664 60.3009 8.744C60.3009 9.176 60.4929 9.512 60.8049 9.512C61.0929 9.512 61.1889 9.272 61.2609 8.984C61.3329 8.72 61.5489 8.408 61.8849 8.408C62.2689 8.408 62.5329 8.768 62.5329 9.176C62.5329 9.824 62.0289 10.4 61.2849 10.4C60.3489 10.4 59.7249 9.68 59.7249 8.792C59.7249 7.088 61.1409 6.08 62.9409 6.08C64.5249 6.08 65.7009 6.944 66.6129 7.712L66.9489 8C68.0529 8.96 68.6049 9.512 69.3969 9.512C70.2369 9.512 70.8609 8.912 70.8609 8.12C70.8609 7.568 70.5489 7.088 70.1169 7.088C69.9009 7.088 69.8289 7.16 69.7329 7.232C69.6129 7.304 69.4689 7.448 69.0849 7.448C68.6289 7.448 68.3169 7.136 68.3169 6.8C68.3169 6.392 68.7489 6.056 69.3969 6.056C70.5969 6.056 71.4129 6.992 71.4129 8.048C71.4129 9.56 70.2609 10.712 68.7249 10.712C67.9809 10.712 67.3329 10.4 66.5649 9.8L66.1569 10.568C65.1249 12.512 64.0449 14.024 62.8209 15.32C60.7329 17.504 56.8929 20.12 53.4129 20.12ZM53.9889 10.112C53.6289 9.872 53.3409 9.512 53.3409 8.936C53.3409 8.288 53.2929 7.808 52.5489 7.808C50.2929 7.808 48.0129 10.736 48.0129 13.448C48.0129 14.264 48.1569 14.984 48.4449 15.608L53.9889 10.112ZM76.9063 19.424L77.8903 15.8L78.6103 15.752V16.376C78.6103 18.488 79.7143 19.784 81.2983 19.784C83.3623 19.784 84.9223 18.152 84.9223 15.824C84.9223 14.408 84.4423 13.28 83.6023 11.72C82.2583 9.176 81.2983 7.688 81.2983 5.792C81.2983 3.272 83.4583 1.616 86.1223 1.616C86.8423 1.616 87.6103 1.808 88.3543 2.096L89.6023 2.576L89.0503 6.176H88.4263L88.4023 5.792C88.3303 3.752 87.1783 2.36 85.7383 2.36C84.2263 2.36 83.1223 3.56 83.1223 5.24C83.1223 6.512 83.6743 7.544 85.0423 10.064C85.9543 11.672 86.8663 13.184 86.8663 15.08C86.8663 18.392 84.2503 20.576 80.9863 20.576C80.1703 20.576 79.3783 20.456 78.3463 20.12C77.8663 19.952 77.4103 19.712 76.9063 19.424ZM90.4189 20.312C89.2909 20.312 88.7149 19.064 88.7149 17.648C88.7149 16.472 89.0989 14.984 89.8669 13.472C91.4029 10.448 93.5389 8.504 95.0269 8.504C95.7949 8.504 96.3949 9.056 96.3949 9.776C96.3949 10.424 96.0109 10.928 95.5069 10.928C95.0749 10.928 94.8349 10.592 94.7149 9.872C94.6669 9.608 94.5469 9.512 94.3309 9.512C93.3949 9.512 92.1469 11.216 91.2109 13.568C90.6109 15.032 90.2749 16.4 90.2749 17.36C90.2749 18.296 90.5869 18.848 91.2349 18.848C91.9309 18.848 92.6749 18.104 93.5389 16.76L93.8029 16.352L94.1869 16.544L93.8989 17.024C92.8909 18.704 91.6429 20.312 90.4189 20.312ZM99.8764 17.816C98.9884 19.064 97.8364 20.36 96.7084 20.36C96.1084 20.36 95.7724 19.928 95.7724 19.376C95.7724 18.896 96.0604 17.984 96.6124 16.808C97.6684 14.576 99.2284 11.6 100.212 9.872C99.1084 10.016 97.9084 11.24 97.5004 11.672L97.0684 12.152L96.7084 11.888L97.3084 11.192C98.3404 10.016 99.9964 8.648 100.884 8.648C101.268 8.648 101.484 8.984 101.484 9.44C101.484 9.872 101.316 10.496 100.956 11.288C100.14 13.016 98.3644 16.472 97.0924 19.16C97.7884 19.16 98.8204 18.392 99.4444 17.552L99.8524 17L100.308 17.24L99.8764 17.816ZM101.748 4.832C101.148 4.832 100.668 4.352 100.668 3.752C100.668 3.152 101.148 2.672 101.748 2.672C102.348 2.672 102.828 3.152 102.828 3.752C102.828 4.352 102.348 4.832 101.748 4.832ZM103.329 20.36C102.249 20.36 101.793 19.136 101.793 17.864C101.793 16.64 102.153 15.08 102.897 13.424C103.857 11.264 105.633 8.576 107.313 8.576C108.201 8.576 108.729 9.416 108.729 10.328C108.729 12.608 106.425 14.456 103.977 14.504C103.569 15.704 103.353 16.784 103.353 17.576C103.353 18.44 103.641 18.992 104.193 18.992C104.793 18.992 105.489 18.272 106.329 16.928L106.761 16.232L107.145 16.376L106.641 17.312C105.537 19.352 104.313 20.36 103.329 20.36ZM104.169 13.952C106.377 13.52 107.961 11.384 107.961 10.064C107.961 9.56 107.721 9.248 107.337 9.248C106.401 9.248 105.201 11.48 104.601 12.848L104.169 13.952ZM109.453 20.192C109.189 20.192 108.781 20.024 108.781 19.76C108.781 19.616 108.877 19.472 108.997 19.16C110.341 15.92 111.565 13.04 112.669 9.8C111.997 10.016 111.325 10.568 110.557 11.672L109.957 12.536L109.501 12.296L110.077 11.432C111.061 9.944 112.477 8.552 113.437 8.552C113.845 8.552 114.037 8.816 114.037 9.176C114.037 10.088 113.005 12.2 111.493 15.896H111.517L113.125 13.352C114.445 11.24 115.237 10.328 115.981 9.632C116.677 9.008 117.445 8.552 117.925 8.552C118.525 8.552 118.789 9.152 118.789 9.8C118.789 10.76 118.189 12.128 117.661 13.208L114.949 18.776C115.885 18.68 116.917 17.648 117.613 16.664L117.949 16.184L118.405 16.448L118.045 16.976C116.893 18.632 115.117 20.216 113.965 20.216C113.557 20.216 113.317 19.928 113.317 19.592C113.317 18.992 114.037 17.576 115.069 15.44L115.981 13.568C116.701 12.08 117.301 10.808 117.301 10.16C117.301 9.872 117.133 9.68 116.917 9.68C116.245 9.68 115.285 10.904 114.037 12.608C112.669 14.456 111.109 17.384 110.317 19.304C110.101 19.808 110.005 20.192 109.453 20.192ZM121.31 20.312C120.182 20.312 119.606 19.064 119.606 17.648C119.606 16.472 119.99 14.984 120.758 13.472C122.294 10.448 124.43 8.504 125.918 8.504C126.686 8.504 127.286 9.056 127.286 9.776C127.286 10.424 126.902 10.928 126.398 10.928C125.966 10.928 125.726 10.592 125.605 9.872C125.558 9.608 125.438 9.512 125.222 9.512C124.286 9.512 123.038 11.216 122.102 13.568C121.502 15.032 121.166 16.4 121.166 17.36C121.166 18.296 121.478 18.848 122.126 18.848C122.822 18.848 123.566 18.104 124.43 16.76L124.694 16.352L125.078 16.544L124.79 17.024C123.782 18.704 122.534 20.312 121.31 20.312ZM128.079 20.36C126.999 20.36 126.543 19.136 126.543 17.864C126.543 16.64 126.903 15.08 127.647 13.424C128.607 11.264 130.383 8.576 132.063 8.576C132.951 8.576 133.479 9.416 133.479 10.328C133.479 12.608 131.175 14.456 128.727 14.504C128.319 15.704 128.103 16.784 128.103 17.576C128.103 18.44 128.391 18.992 128.943 18.992C129.543 18.992 130.239 18.272 131.079 16.928L131.511 16.232L131.895 16.376L131.391 17.312C130.287 19.352 129.063 20.36 128.079 20.36ZM128.919 13.952C131.127 13.52 132.711 11.384 132.711 10.064C132.711 9.56 132.471 9.248 132.087 9.248C131.151 9.248 129.951 11.48 129.351 12.848L128.919 13.952ZM146.323 20.024C144.859 19.928 143.419 19.88 141.955 19.88H139.939L140.083 19.16L141.115 19.088C142.147 19.016 142.555 18.752 142.819 18.44C143.107 18.08 143.203 17.6 143.371 16.736L145.819 4.496C145.939 3.968 145.987 3.752 145.987 3.536C145.963 2.84 145.411 2.792 144.691 2.744L143.131 2.648L143.275 1.904L144.307 1.928C146.515 1.976 149.443 2.024 153.067 2.048L157.891 2.024L157.771 2.6C157.579 3.536 157.435 4.304 157.267 5.312L157.171 5.912L156.427 5.864L156.499 5.336C156.595 4.544 156.475 3.968 156.115 3.584C155.683 3.08 154.819 2.888 152.851 2.888H151.123C150.115 2.888 149.083 2.936 148.075 2.96L146.683 9.536L151.771 9.584C152.635 9.584 153.043 9.536 153.331 9.368C153.667 9.176 153.835 8.864 154.075 7.976L154.291 7.184H154.963L154.723 8.264C154.435 9.512 154.195 10.808 154.027 12.176L153.931 12.968H153.211L153.355 12.224C153.499 11.504 153.451 11.096 153.235 10.808C153.043 10.496 152.683 10.328 151.843 10.328L146.539 10.256L145.291 16.712C145.147 17.408 145.099 17.744 145.099 18.008C145.099 18.272 145.147 18.44 145.243 18.584C145.411 18.848 145.699 18.992 146.515 19.112L148.339 19.376L148.171 20.144L146.323 20.024ZM155.615 16.904C155.615 15.776 155.854 14.48 156.383 13.184C157.511 10.424 159.503 8.528 161.135 8.528C162.815 8.528 163.439 10.352 163.439 12.008C163.439 13.136 163.199 14.432 162.671 15.728C161.543 18.512 159.575 20.384 157.943 20.384C156.263 20.384 155.615 18.56 155.615 16.904ZM157.871 19.76C158.927 19.76 160.415 17.816 161.398 15.152C161.927 13.688 162.215 12.272 162.215 11.192C162.215 9.992 161.855 9.2 161.183 9.2C160.127 9.2 158.615 11.144 157.655 13.784C157.127 15.248 156.863 16.64 156.863 17.72C156.863 18.944 157.199 19.76 157.871 19.76ZM171.888 10.688L171.84 10.496C171.768 10.136 171.672 9.968 171.48 9.968C171.144 9.968 170.688 10.64 170.472 10.976C170.016 11.648 169.44 12.632 168.768 13.952C167.784 15.872 166.92 17.768 165.984 19.688C165.792 20.096 165.696 20.168 165.216 20.168H165C164.616 20.168 164.52 20.024 164.52 19.832C164.52 19.712 164.544 19.592 164.76 18.992L166.032 15.44C166.68 13.52 167.376 11.624 167.88 9.896C167.28 9.992 166.632 10.76 166.128 11.504L165.6 12.296L165.168 12.056L165.912 10.928C167.112 9.128 168.048 8.36 168.696 8.36C168.984 8.36 169.176 8.672 169.176 9.248C169.176 9.848 168.984 10.784 168.456 12.224L166.584 17.24L168.696 13.088C170.112 10.28 171.096 8.384 172.296 8.384C172.944 8.384 173.448 9.152 173.448 9.896C173.448 10.664 173.208 11.216 172.56 11.216C172.176 11.216 172.008 11.072 171.888 10.688ZM189.47 20.096C187.718 19.976 186.11 20 184.358 20.12L183.302 20.192L183.374 19.376L184.382 19.256C185.342 19.136 185.75 18.92 186.038 18.608C186.398 18.176 186.518 17.552 186.734 16.52L187.646 11.936L185.006 5.24C184.598 4.232 184.43 3.824 184.166 3.512C183.926 3.224 183.638 3.056 182.894 2.888L182.366 2.768L182.486 1.952L183.35 2.024C184.598 2.12 185.846 2.096 187.094 2L188.414 1.904L188.27 2.72L187.814 2.816C186.806 3.032 186.542 3.392 186.542 3.824C186.542 4.088 186.638 4.376 186.926 5.096L189.278 11.12L196.19 4.52C196.67 4.064 196.766 3.872 196.766 3.68C196.766 3.32 196.334 3.008 195.35 2.816L194.726 2.696L194.87 1.976L195.926 2.048C197.27 2.144 198.398 2.12 199.502 2.072L200.606 2.024L200.582 2.696L200.15 2.816C199.094 3.104 198.278 3.608 196.91 4.88L189.542 11.792L188.414 17.456C188.27 18.176 188.222 18.392 188.222 18.536C188.222 19.112 188.63 19.16 189.878 19.304L190.766 19.4L190.622 20.168L189.47 20.096ZM194.45 16.904C194.45 15.776 194.69 14.48 195.218 13.184C196.346 10.424 198.338 8.528 199.97 8.528C201.65 8.528 202.274 10.352 202.274 12.008C202.274 13.136 202.034 14.432 201.506 15.728C200.378 18.512 198.41 20.384 196.778 20.384C195.098 20.384 194.45 18.56 194.45 16.904ZM196.706 19.76C197.762 19.76 199.25 17.816 200.234 15.152C200.762 13.688 201.05 12.272 201.05 11.192C201.05 9.992 200.69 9.2 200.018 9.2C198.962 9.2 197.45 11.144 196.49 13.784C195.962 15.248 195.698 16.64 195.698 17.72C195.698 18.944 196.034 19.76 196.706 19.76ZM203.812 20.336C203.356 20.336 203.164 19.952 203.164 19.448C203.164 18.368 203.86 16.928 204.46 15.632L206.98 10.232C206.188 10.568 205.396 11.264 204.724 12.176L204.22 12.848L203.836 12.536L204.364 11.816C205.54 10.208 207.196 8.648 208.348 8.648C208.612 8.648 208.732 8.84 208.732 9.176C208.732 9.92 207.964 11.216 207.052 13.208L206.092 15.272C205.444 16.688 204.868 17.84 204.868 18.2C204.868 18.392 204.964 18.512 205.156 18.512C205.996 18.512 209.164 14.792 210.532 12.368C211.132 11.312 211.66 9.824 211.876 9.344C212.092 8.864 212.332 8.6 212.716 8.6C213.028 8.6 213.268 8.84 213.268 9.224C213.268 9.56 213.148 9.92 212.908 10.496L209.572 18.776C210.196 18.512 211.036 17.72 211.636 16.952L212.044 16.424L212.428 16.664L212.044 17.216C210.916 18.848 209.476 20.312 208.684 20.312C208.3 20.312 208.18 20.048 208.18 19.64C208.18 18.848 208.564 18.032 208.948 17.096L210.34 13.688L210.316 13.664L208.588 15.824C205.756 19.352 204.364 20.336 203.812 20.336ZM221.411 10.688L221.363 10.496C221.291 10.136 221.195 9.968 221.003 9.968C220.667 9.968 220.211 10.64 219.995 10.976C219.539 11.648 218.963 12.632 218.291 13.952C217.307 15.872 216.443 17.768 215.507 19.688C215.315 20.096 215.219 20.168 214.739 20.168H214.523C214.139 20.168 214.043 20.024 214.043 19.832C214.043 19.712 214.067 19.592 214.283 18.992L215.555 15.44C216.203 13.52 216.899 11.624 217.403 9.896C216.803 9.992 216.155 10.76 215.651 11.504L215.123 12.296L214.691 12.056L215.435 10.928C216.635 9.128 217.571 8.36 218.219 8.36C218.507 8.36 218.699 8.672 218.699 9.248C218.699 9.848 218.507 10.784 217.979 12.224L216.107 17.24L218.219 13.088C219.635 10.28 220.619 8.384 221.819 8.384C222.467 8.384 222.971 9.152 222.971 9.896C222.971 10.664 222.731 11.216 222.083 11.216C221.699 11.216 221.531 11.072 221.411 10.688ZM241.753 20.12L241.921 19.232L243.457 19.088C244.201 19.016 244.537 18.848 244.753 18.56C244.945 18.272 245.065 17.888 245.113 17.168L245.497 12.44L237.433 12.344L233.305 16.496C232.465 17.336 232.129 17.864 232.129 18.272C232.129 18.92 232.921 19.04 233.545 19.112L234.817 19.256L234.673 20.096L232.897 20C231.409 19.928 229.969 19.88 228.481 19.952L227.329 20L227.449 19.088L227.833 19.016C229.657 18.68 230.785 17.792 232.921 15.656L247.129 1.376L248.257 1.448L248.185 2.12C248.017 3.752 247.825 5.36 247.633 7.952L246.913 17.288C246.865 17.96 246.793 18.416 247.033 18.728C247.177 18.896 247.393 19.016 248.041 19.088L249.385 19.256L249.361 20.12L247.873 20.024C246.289 19.928 244.705 19.904 243.121 20.024L241.753 20.12ZM238.201 11.576L245.569 11.672L246.217 3.536L238.201 11.576ZM251.179 20.336C250.723 20.336 250.531 19.952 250.531 19.448C250.531 18.368 251.227 16.928 251.827 15.632L254.347 10.232C253.555 10.568 252.763 11.264 252.091 12.176L251.587 12.848L251.203 12.536L251.731 11.816C252.907 10.208 254.563 8.648 255.715 8.648C255.979 8.648 256.099 8.84 256.099 9.176C256.099 9.92 255.331 11.216 254.419 13.208L253.459 15.272C252.811 16.688 252.235 17.84 252.235 18.2C252.235 18.392 252.331 18.512 252.523 18.512C253.363 18.512 256.531 14.792 257.899 12.368C258.499 11.312 259.027 9.824 259.243 9.344C259.459 8.864 259.699 8.6 260.083 8.6C260.395 8.6 260.635 8.84 260.635 9.224C260.635 9.56 260.515 9.92 260.275 10.496L256.939 18.776C257.563 18.512 258.403 17.72 259.003 16.952L259.411 16.424L259.795 16.664L259.411 17.216C258.283 18.848 256.843 20.312 256.051 20.312C255.667 20.312 255.547 20.048 255.547 19.64C255.547 18.848 255.931 18.032 256.315 17.096L257.707 13.688L257.683 13.664L255.955 15.824C253.123 19.352 251.731 20.336 251.179 20.336ZM261.818 20.336C261.458 20.336 261.29 20.12 261.266 19.688C261.29 19.28 261.602 18.584 261.842 17.888L264.65 9.776H262.898L263.21 8.864H264.938L265.898 5.84C266.09 5.216 266.402 5.096 266.906 5.096C267.314 5.096 267.482 5.264 267.482 5.528C267.482 5.696 267.434 5.864 267.218 6.44L266.306 8.864H268.418L268.082 9.776H266.066L263.186 18.248C263.762 17.96 264.506 17.264 265.058 16.352L265.346 15.872L265.898 16.136L265.562 16.664C264.578 18.2 262.658 20.336 261.818 20.336ZM267.951 20.312C267.855 20.312 267.807 20.288 267.591 20.192C267.231 20 267.111 19.88 267.111 19.712C267.111 19.616 267.135 19.52 267.207 19.304L273.183 3.608C273.447 2.912 273.543 2.528 273.543 2.216C273.543 1.736 273.087 1.688 272.535 1.664L272.127 1.64L272.271 0.967999L273.039 0.991999C273.615 1.016 274.455 0.991999 275.199 0.92L275.463 0.895998L275.679 1.064L275.535 1.424C273.855 5.624 272.271 9.824 270.615 14.024L272.007 11.936C273.327 9.944 274.503 8.648 275.463 8.648C276.471 8.648 277.167 10.16 277.167 11.96C277.167 12.584 277.071 13.256 276.879 13.928C275.799 17.624 273.447 20.312 271.455 20.312C270.759 20.312 270.159 20 270.159 19.304C270.159 18.728 270.567 18.392 270.999 18.392C271.335 18.392 271.551 18.584 271.743 18.824L271.839 18.944C272.031 19.208 272.223 19.328 272.415 19.328C273.207 19.328 274.263 17.216 275.055 14.432C275.511 12.824 275.799 11.408 275.799 10.496C275.799 9.776 275.631 9.368 275.271 9.368C274.479 9.368 273.087 10.88 271.815 12.968C270.951 14.432 270.039 16.136 269.271 17.792C268.935 18.512 268.671 19.208 268.287 19.976C268.167 20.192 268.095 20.312 267.951 20.312ZM279.298 20.36C278.218 20.36 277.762 19.136 277.762 17.864C277.762 16.64 278.122 15.08 278.866 13.424C279.826 11.264 281.602 8.576 283.282 8.576C284.17 8.576 284.698 9.416 284.698 10.328C284.698 12.608 282.394 14.456 279.946 14.504C279.538 15.704 279.322 16.784 279.322 17.576C279.322 18.44 279.61 18.992 280.162 18.992C280.762 18.992 281.458 18.272 282.298 16.928L282.73 16.232L283.114 16.376L282.61 17.312C281.506 19.352 280.282 20.36 279.298 20.36ZM280.138 13.952C282.346 13.52 283.93 11.384 283.93 10.064C283.93 9.56 283.69 9.248 283.306 9.248C282.37 9.248 281.17 11.48 280.57 12.848L280.138 13.952ZM285.422 20.192C285.158 20.192 284.75 20.024 284.75 19.76C284.75 19.616 284.846 19.472 284.966 19.16C286.31 15.92 287.534 13.04 288.638 9.8C287.966 10.016 287.294 10.568 286.526 11.672L285.926 12.536L285.47 12.296L286.046 11.432C287.03 9.944 288.446 8.552 289.406 8.552C289.814 8.552 290.006 8.816 290.006 9.176C290.006 10.088 288.974 12.2 287.462 15.896H287.486L289.094 13.352C290.414 11.24 291.206 10.328 291.95 9.632C292.646 9.008 293.414 8.552 293.894 8.552C294.494 8.552 294.758 9.152 294.758 9.8C294.758 10.76 294.158 12.128 293.63 13.208L290.918 18.776C291.854 18.68 292.886 17.648 293.582 16.664L293.918 16.184L294.374 16.448L294.014 16.976C292.862 18.632 291.086 20.216 289.934 20.216C289.526 20.216 289.286 19.928 289.286 19.592C289.286 18.992 290.006 17.576 291.038 15.44L291.95 13.568C292.67 12.08 293.27 10.808 293.27 10.16C293.27 9.872 293.102 9.68 292.886 9.68C292.214 9.68 291.254 10.904 290.006 12.608C288.638 14.456 287.078 17.384 286.286 19.304C286.07 19.808 285.974 20.192 285.422 20.192ZM296.318 20.336C295.958 20.336 295.79 20.12 295.766 19.688C295.79 19.28 296.102 18.584 296.342 17.888L299.15 9.776H297.398L297.71 8.864H299.438L300.398 5.84C300.59 5.216 300.902 5.096 301.406 5.096C301.814 5.096 301.982 5.264 301.982 5.528C301.982 5.696 301.934 5.864 301.718 6.44L300.806 8.864H302.918L302.582 9.776H300.566L297.686 18.248C298.262 17.96 299.006 17.264 299.558 16.352L299.846 15.872L300.398 16.136L300.062 16.664C299.078 18.2 297.158 20.336 296.318 20.336ZM306.267 17.816C305.379 19.064 304.227 20.36 303.099 20.36C302.499 20.36 302.163 19.928 302.163 19.376C302.163 18.896 302.451 17.984 303.003 16.808C304.059 14.576 305.619 11.6 306.603 9.872C305.499 10.016 304.299 11.24 303.891 11.672L303.459 12.152L303.099 11.888L303.699 11.192C304.731 10.016 306.387 8.648 307.275 8.648C307.659 8.648 307.875 8.984 307.875 9.44C307.875 9.872 307.707 10.496 307.347 11.288C306.531 13.016 304.755 16.472 303.483 19.16C304.179 19.16 305.211 18.392 305.835 17.552L306.243 17L306.699 17.24L306.267 17.816ZM308.139 4.832C307.539 4.832 307.059 4.352 307.059 3.752C307.059 3.152 307.539 2.672 308.139 2.672C308.739 2.672 309.219 3.152 309.219 3.752C309.219 4.352 308.739 4.832 308.139 4.832ZM309.888 20.312C308.76 20.312 308.184 19.064 308.184 17.648C308.184 16.472 308.568 14.984 309.336 13.472C310.872 10.448 313.008 8.504 314.496 8.504C315.264 8.504 315.864 9.056 315.864 9.776C315.864 10.424 315.48 10.928 314.976 10.928C314.544 10.928 314.304 10.592 314.184 9.872C314.136 9.608 314.016 9.512 313.8 9.512C312.864 9.512 311.616 11.216 310.68 13.568C310.08 15.032 309.744 16.4 309.744 17.36C309.744 18.296 310.056 18.848 310.704 18.848C311.4 18.848 312.144 18.104 313.008 16.76L313.272 16.352L313.656 16.544L313.368 17.024C312.36 18.704 311.112 20.312 309.888 20.312ZM321.289 19.424L322.273 15.8L322.993 15.752V16.376C322.993 18.488 324.097 19.784 325.681 19.784C327.745 19.784 329.305 18.152 329.305 15.824C329.305 14.408 328.825 13.28 327.985 11.72C326.641 9.176 325.681 7.688 325.681 5.792C325.681 3.272 327.841 1.616 330.505 1.616C331.225 1.616 331.993 1.808 332.737 2.096L333.985 2.576L333.433 6.176H332.809L332.785 5.792C332.713 3.752 331.561 2.36 330.121 2.36C328.609 2.36 327.505 3.56 327.505 5.24C327.505 6.512 328.057 7.544 329.425 10.064C330.337 11.672 331.249 13.184 331.249 15.08C331.249 18.392 328.633 20.576 325.369 20.576C324.553 20.576 323.761 20.456 322.729 20.12C322.249 19.952 321.793 19.712 321.289 19.424ZM334.634 20.36C333.554 20.36 333.098 19.136 333.098 17.864C333.098 16.64 333.458 15.08 334.202 13.424C335.162 11.264 336.938 8.576 338.618 8.576C339.506 8.576 340.034 9.416 340.034 10.328C340.034 12.608 337.73 14.456 335.282 14.504C334.874 15.704 334.658 16.784 334.658 17.576C334.658 18.44 334.946 18.992 335.498 18.992C336.098 18.992 336.794 18.272 337.634 16.928L338.066 16.232L338.45 16.376L337.946 17.312C336.842 19.352 335.618 20.36 334.634 20.36ZM335.474 13.952C337.682 13.52 339.266 11.384 339.266 10.064C339.266 9.56 339.026 9.248 338.642 9.248C337.706 9.248 336.506 11.48 335.906 12.848L335.474 13.952ZM340.662 20.264C340.254 20.264 339.99 20 339.99 19.64C339.99 19.28 340.062 18.896 340.374 18.056L345.942 3.536C346.182 2.888 346.302 2.528 346.302 2.312C346.302 1.784 345.798 1.712 345.03 1.688L344.454 1.664L344.646 0.991999L345.438 1.016C346.47 1.04 347.406 0.943999 348.39 0.823999L348.486 0.943999C347.886 2.384 347.286 3.872 346.71 5.36L341.502 18.776C342.462 18.464 343.59 17.48 344.406 16.28L344.718 15.824L345.174 16.112L344.886 16.568C343.902 18.104 341.862 20.264 340.662 20.264ZM339.743 25.592C339.743 25.016 340.127 24.704 340.679 24.704C341.279 24.704 341.567 25.256 341.639 25.688L341.663 25.856C341.735 26.336 342.047 26.456 342.527 26.456C343.271 26.456 344.087 25.544 344.495 24.992C345.791 23.168 346.367 20.576 347.327 17.168L349.391 9.776H347.183L347.351 8.864H349.631L349.991 7.616C350.447 5.96 350.927 4.616 351.647 3.464C352.511 2.072 354.239 0.464 356.255 0.464C357.239 0.464 358.367 1.088 358.367 2.048C358.367 2.528 358.055 2.96 357.311 2.96C356.663 2.96 356.303 2.336 356.303 1.76C356.303 1.64 356.327 1.544 356.327 1.448C356.327 1.208 356.063 1.16 355.775 1.16C355.295 1.16 354.479 1.424 353.951 1.952C352.847 3.008 352.199 4.736 351.191 8.504L351.095 8.864H353.135L352.799 9.776H350.855L349.127 16.232C348.407 18.896 347.807 20.816 347.207 22.232C346.535 23.816 345.551 25.304 344.303 26.264C343.559 26.84 342.695 27.224 341.879 27.224C341.039 27.224 339.743 26.552 339.743 25.592Z" fill="white"/>
</svg>
